<svg width="68" height="74" viewBox="0 0 68 74" xmlns="http://www.w3.org/2000/svg">
<path d="M17.8073 51.0206C17.8073 50.381 17.2888 49.8624 16.6491 49.8624H7.09399C6.45438 49.8624 5.93579 50.381 5.93579 51.0206V57.5355C5.93579 58.1751 6.45438 58.6937 7.09399 58.6937H16.6491C17.2888 58.6937 17.8073 58.1751 17.8073 57.5355V51.0206ZM15.4909 56.3773H8.25219V52.1788H15.4909V56.3773Z"/>
<path d="M53.2773 51.0206C53.2773 50.381 52.7587 49.8624 52.1191 49.8624H42.564C41.9244 49.8624 41.4058 50.381 41.4058 51.0206V57.5355C41.4058 58.1751 41.9244 58.6937 42.564 58.6937H52.1191C52.7587 58.6937 53.2773 58.1751 53.2773 57.5355V51.0206ZM50.9609 56.3773H43.7222V52.1788H50.9609V56.3773Z"/>
<path d="M36.9177 52.3236C36.9177 51.684 36.3991 51.1654 35.7595 51.1654H23.4536C22.814 51.1654 22.2954 51.684 22.2954 52.3236V56.2325C22.2954 56.8722 22.814 57.3907 23.4536 57.3907H35.7595C36.3991 57.3907 36.9177 56.8722 36.9177 56.2325V52.3236ZM34.6013 55.0743H24.6118V53.4818H34.6013V55.0743Z"/>
<path d="M66.5395 7.84764L52.7915 1.09185C52.4708 0.934065 52.0948 0.934065 51.7741 1.09185L38.0092 7.82841C37.6105 8.02183 37.3554 8.42505 37.352 8.86899V21.3638C37.352 23.273 38.0035 25.3954 39.0401 27.2775H13.726C11.5662 27.269 9.62928 28.6036 8.86751 30.6243L4.36987 42.7452L2.50702 44.4797C0.910532 45.8432 -0.00618939 47.8389 3.14568e-05 49.9387V67.7998C3.14568e-05 70.6569 2.30173 73.0264 5.15821 73.0264H8.51292C11.3949 73.0095 13.7288 70.6817 13.7537 67.7998V65.0638H45.4594V67.7998C45.4594 70.6574 47.7691 73.0264 50.6267 73.0264H53.9802C56.8605 73.0095 59.1922 70.6806 59.2131 67.7998V49.4778C59.2001 47.5092 58.3868 45.6306 56.9606 44.2739L55.6429 42.8793L53.4741 37.043L61.97 31.2384C64.9464 29.2093 67.1757 24.9639 67.1757 21.3638V8.88708C67.1802 8.4471 66.9337 8.04332 66.5395 7.84764ZM11.0391 31.4087C11.4644 30.2991 12.5384 29.5741 13.726 29.5939H40.679C41.2666 30.173 41.9096 30.8069 42.5928 31.2724L50.9609 36.9412L52.9193 42.1893H7.02445L11.0391 31.4087ZM11.4373 67.7998C11.4124 69.4025 10.1151 70.6931 8.51292 70.71H5.15821C3.57813 70.71 2.31643 69.3793 2.31643 67.7998V64.2675C3.16529 64.8053 4.15383 65.0825 5.15878 65.0638H11.4373V67.7998ZM56.032 69.8487C55.4879 70.3945 54.7505 70.7038 53.9802 70.71H50.6267C49.0466 70.71 47.7758 69.3793 47.7758 67.7998V65.0638H53.9802C55.0084 65.083 56.0207 64.807 56.8967 64.2681V67.7998C56.8893 68.5701 56.5783 69.3058 56.032 69.8482V69.8487ZM56.8967 58.947V59.9531C56.8967 61.5332 55.5603 62.7474 53.9802 62.7474H5.15878C4.40889 62.7615 3.68501 62.4737 3.15002 61.9477C2.61503 61.4224 2.31474 60.703 2.31643 59.9531V49.9387C2.31078 48.5074 2.93682 47.1467 4.02659 46.2198C4.04016 46.208 4.04752 46.1763 4.06052 46.1638L5.81536 44.5057H54.0181L55.2663 45.8607C55.2827 45.8783 55.3251 45.9054 55.3426 45.9218C56.3238 46.8459 56.8848 48.1302 56.8967 49.4778V58.947ZM64.8593 21.3632C64.8593 24.1705 62.9829 27.7418 60.6614 29.3241L52.2797 35.0444L43.8844 29.3236C41.5635 27.7418 39.6684 24.171 39.6684 21.3638V9.59117L52.2639 3.42182L64.8593 9.6087V21.3632Z"/>
<path d="M47.8679 18.397C47.5773 18.1012 47.1503 17.9836 46.7493 18.0888C46.3478 18.1934 46.0334 18.505 45.9248 18.9054C45.8156 19.3058 45.9293 19.7333 46.2223 20.0274L49.7449 23.5942C49.9598 23.8159 50.255 23.9431 50.5644 23.9476H50.5672C50.8754 23.9437 51.1701 23.8181 51.3861 23.5981L58.3449 16.6342C58.7922 16.1812 58.7905 15.4517 58.3404 15.001C57.8908 14.5497 57.1613 14.5463 56.7071 14.9925L50.5712 21.1273L47.8679 18.397Z"/>
</svg>
