<svg width="14" height="16" viewBox="0 0 14 16" xmlns="http://www.w3.org/2000/svg">
<path d="M7.10699 8.85911C6.48769 8.85911 5.89141 8.45818 5.42798 7.73018C4.92623 6.94197 4.6499 5.88531 4.6499 4.75482C4.6499 3.44342 4.83603 2.43307 5.20312 1.75185C5.60246 1.01078 6.22521 0.650536 7.10699 0.650536C7.98876 0.650536 8.61152 1.01078 9.01086 1.75185C9.37794 2.43307 9.56407 3.44342 9.56407 4.75482C9.56407 5.88531 9.28775 6.94197 8.786 7.73018C8.32257 8.45818 7.72628 8.85911 7.10699 8.85911Z" fill="white"/>
<path d="M7.10712 1.09052C6.37992 1.09052 5.91077 1.35935 5.58593 1.96216C5.25401 2.57814 5.08571 3.51773 5.08571 4.75484C5.08571 5.78682 5.34408 6.78457 5.79459 7.49227C6.01495 7.83843 6.47848 8.41915 7.10712 8.41915C7.73575 8.41915 8.19929 7.83843 8.41964 7.49227C8.87015 6.78457 9.12853 5.78682 9.12853 4.75484C9.12853 3.51773 8.96022 2.57814 8.6283 1.96216C8.30347 1.35935 7.83431 1.09052 7.10712 1.09052ZM7.10712 0.210571C9.34757 0.210571 9.99988 2.24511 9.99988 4.75484C9.99988 7.26456 8.70474 9.2991 7.10712 9.2991C5.50949 9.2991 4.21436 7.26456 4.21436 4.75484C4.21436 2.24511 4.86666 0.210571 7.10712 0.210571Z"/>
<path d="M13 4.10524H1V15.2106H13V4.10524Z" fill="white"/>
<path d="M12.5716 4.54799H1.42773V14.7679H12.5716V4.54799Z" stroke="red"/>
</svg>
