<svg width="12" height="15" viewBox="0 0 12 15" xmlns="http://www.w3.org/2000/svg">
<path d="M5.5675 0C2.53479 0 0.0675049 2.43698 0.0675049 5.43241C0.0675049 9.14984 4.98947 14.6072 5.19902 14.8377C5.39585 15.0543 5.73951 15.0539 5.93599 14.8377C6.14554 14.6072 11.0675 9.14984 11.0675 5.43241C11.0674 2.43698 8.60019 0 5.5675 0ZM5.5675 8.16561C4.04167 8.16561 2.80035 6.9395 2.80035 5.43241C2.80035 3.92532 4.0417 2.69924 5.5675 2.69924C7.09331 2.69924 8.33463 3.92535 8.33463 5.43244C8.33463 6.93953 7.09331 8.16561 5.5675 8.16561Z"/>
</svg>
