<svg width="70" height="72" viewBox="0 0 70 72" xmlns="http://www.w3.org/2000/svg">
<path d="M35.3845 25.5234H8.84622C8.27952 25.5234 7.80957 26.0016 7.80957 26.5781C7.80957 27.1547 8.27952 27.6328 8.84622 27.6328H35.3845C35.9512 27.6328 36.4212 27.1547 36.4212 26.5781C36.4212 26.0016 35.9512 25.5234 35.3845 25.5234Z"/>
<path d="M35.3845 32.9343H8.84622C8.27952 32.9343 7.80957 33.4125 7.80957 33.989C7.80957 34.5656 8.27952 35.0437 8.84622 35.0437H35.3845C35.9512 35.0437 36.4212 34.5656 36.4212 33.989C36.4212 33.4125 35.9512 32.9343 35.3845 32.9343Z"/>
<path d="M35.3845 40.3453H8.84622C8.27952 40.3453 7.80957 40.8235 7.80957 41.4C7.80957 41.9766 8.27952 42.4547 8.84622 42.4547H35.3845C35.9512 42.4547 36.4212 41.9766 36.4212 41.4C36.4212 40.8235 35.9512 40.3453 35.3845 40.3453Z"/>
<path d="M35.3845 47.7563H8.84622C8.27952 47.7563 7.80957 48.2345 7.80957 48.811C7.80957 49.3876 8.27952 49.8657 8.84622 49.8657H35.3845C35.9512 49.8657 36.4212 49.3876 36.4212 48.811C36.4212 48.2345 35.9512 47.7563 35.3845 47.7563Z"/>
<path d="M22.143 58.6125H8.84622C8.27952 58.6125 7.80957 59.0907 7.80957 59.6672C7.80957 60.2438 8.27952 60.7219 8.84622 60.7219H22.143C22.7097 60.7219 23.1797 60.2438 23.1797 59.6672C23.1797 59.0907 22.7235 58.6125 22.143 58.6125Z"/>
<path d="M23.7185 15.4265H25.5154H44.9906C46.276 15.4265 47.3127 14.3718 47.3127 13.064V9.63276C47.3127 8.32495 46.276 7.27026 44.9906 7.27026H23.7047C22.4192 7.27026 21.3826 8.32495 21.3826 9.63276V13.05C21.3964 14.3578 22.4469 15.4265 23.7185 15.4265ZM23.4697 9.63276C23.4697 9.49214 23.5803 9.37964 23.7185 9.37964H45.0044C45.1426 9.37964 45.2532 9.49214 45.2532 9.63276V13.05C45.2532 13.1906 45.1426 13.3031 45.0044 13.3031H24.0088H23.7323C23.5941 13.3031 23.4835 13.1906 23.4835 13.05V9.63276H23.4697Z"/>
<path d="M69.276 40.0641C68.7922 39.3469 68.7922 38.4188 69.276 37.6875C70.0086 36.6047 70.1882 35.2547 69.7874 34.0031C69.3866 32.7516 68.4605 31.7812 67.2441 31.3313C66.4425 31.0359 65.9034 30.2766 65.8758 29.4047C65.8343 28.0969 65.2123 26.8875 64.1757 26.1141C63.1252 25.3406 61.8121 25.1156 60.5819 25.4812C59.7526 25.7203 58.8818 25.4391 58.3566 24.75C57.7899 23.9906 57.002 23.4703 56.1174 23.2453V5.21719C56.1174 2.33437 53.8091 0 50.9894 0H15.8124C14.444 0 13.1586 0.548437 12.191 1.53281L1.5066 12.4031C0.539059 13.3875 0 14.6953 0 16.0875V66.7828C0 69.6656 2.29446 72 5.12797 72H50.9894C53.823 72 56.1174 69.6656 56.1174 66.7828V62.1141L58.9509 63.8859C59.6282 64.3078 60.4852 64.3219 61.1763 63.9281C61.8674 63.5344 62.3097 62.7891 62.3097 61.9734V52.3687C63.0699 52.2562 63.7886 51.9469 64.3968 51.4406C65.3091 50.6672 65.8619 49.5281 65.8896 48.3188C65.9172 47.4469 66.4563 46.6875 67.258 46.3922C68.4743 45.9422 69.4004 44.9719 69.8012 43.7203C70.1882 42.4828 70.0086 41.1469 69.276 40.0641ZM13.0895 3.6V11.7844C13.0895 12.6281 12.4122 13.3172 11.5829 13.3172H3.53844L13.0895 3.6ZM50.9894 69.8906H5.12797C3.44168 69.8906 2.0733 68.4984 2.0733 66.7828V16.0875C2.0733 15.8625 2.10095 15.6375 2.14241 15.4125H11.5829C13.5594 15.4125 15.1628 13.7812 15.1628 11.7703V2.17969C15.3701 2.1375 15.5912 2.10938 15.8262 2.10938H50.9894C52.6757 2.10938 54.0441 3.50156 54.0441 5.21719V23.2734C53.1595 23.4984 52.3716 24.0187 51.8049 24.7781C51.2797 25.4672 50.4089 25.7625 49.5934 25.5094C48.3494 25.1437 47.0363 25.3687 45.9997 26.1422C44.9492 26.9156 44.3272 28.1109 44.2996 29.4328C44.2719 30.3047 43.7329 31.0641 42.9312 31.3594C41.7149 31.8094 40.7888 32.7797 40.388 34.0312C39.9871 35.2828 40.1806 36.6188 40.8994 37.7016C41.3831 38.4188 41.3831 39.3609 40.8994 40.0781C40.1668 41.1609 39.9871 42.5109 40.388 43.7625C40.7888 45.0141 41.7149 45.9844 42.9312 46.4344C43.7329 46.7297 44.2719 47.4891 44.2996 48.3609C44.3411 49.5703 44.8801 50.7094 45.7924 51.4828C46.4005 51.9891 47.1193 52.3125 47.8795 52.4109V62.0156C47.8795 62.8312 48.308 63.5766 49.0129 63.9703C49.704 64.3641 50.561 64.35 51.2382 63.9281L54.0718 62.1562V66.825C54.0441 68.4984 52.6757 69.8906 50.9894 69.8906ZM60.2226 61.9734C60.2226 62.0719 60.112 62.1422 60.029 62.0859L56.228 59.7094C55.5231 59.2734 54.6246 59.2594 53.9197 59.7094L50.1187 62.0859C50.0357 62.1422 49.9252 62.0719 49.9252 61.9734V52.1719C50.6439 52.0875 51.3488 52.3828 51.7911 52.9734C52.579 54.0141 53.7815 54.6047 55.0669 54.6047C56.3524 54.6047 57.5549 54.0141 58.3428 52.9734C58.7989 52.3828 59.5038 52.0875 60.2087 52.1719V61.9734H60.2226ZM67.562 41.2453C67.9214 41.7937 68.0182 42.4547 67.8247 43.0875C67.6312 43.7062 67.1612 44.1984 66.553 44.4234C64.9359 45.0141 63.8577 46.5188 63.8163 48.2625C63.8025 48.8813 63.5398 49.4297 63.0699 49.8234C62.5447 50.2594 61.8397 50.4281 61.1625 50.2313C59.5176 49.7391 57.7761 50.3156 56.7256 51.6938C56.3247 52.2141 55.7304 52.5094 55.0808 52.5094C54.4311 52.5094 53.8368 52.2141 53.4359 51.6938C52.6343 50.6391 51.4318 50.0484 50.1739 50.0484C49.7869 50.0484 49.3861 50.1047 48.9991 50.2172C48.308 50.4141 47.6031 50.2453 47.0916 49.8094C46.6355 49.4156 46.3591 48.8672 46.3452 48.2484C46.29 46.5047 45.2118 45 43.6085 44.4094C43.0003 44.1844 42.5442 43.7062 42.3369 43.0734C42.1433 42.4547 42.2263 41.7797 42.5995 41.2313C43.567 39.7828 43.567 37.9266 42.5995 36.4781C42.2401 35.9297 42.1433 35.2687 42.3369 34.6359C42.5304 34.0172 43.0003 33.525 43.6085 33.3C45.2257 32.7094 46.3038 31.2047 46.3452 29.4609C46.3591 28.8 46.677 28.2094 47.2022 27.8156C47.7274 27.4359 48.3771 27.3094 48.9991 27.4922C50.6439 27.9844 52.3855 27.4078 53.4359 26.0297C53.8368 25.5094 54.4311 25.2141 55.0808 25.2141C55.7304 25.2141 56.3247 25.5094 56.7256 26.0297C57.7761 27.4078 59.5176 27.9844 61.1625 27.4922C61.7844 27.3094 62.4341 27.4219 62.9593 27.8156C63.4846 28.1953 63.7886 28.8 63.8163 29.4609C63.8716 31.2047 64.9497 32.7094 66.553 33.3C67.1612 33.525 67.6173 34.0031 67.8247 34.6359C68.0182 35.2547 67.9352 35.9297 67.562 36.4781C66.5945 37.9406 66.5945 39.8109 67.562 41.2453Z"/>
<path d="M55.0808 30.0375C50.2845 30.0375 46.3867 34.0031 46.3867 38.8828C46.3867 43.7625 50.2845 47.7281 55.0808 47.7281C59.877 47.7281 63.7748 43.7625 63.7748 38.8828C63.761 34.0031 59.8632 30.0375 55.0808 30.0375ZM55.0808 45.6047C51.4318 45.6047 48.46 42.5812 48.46 38.8687C48.46 35.1562 51.4318 32.1328 55.0808 32.1328C58.7298 32.1328 61.7015 35.1562 61.7015 38.8687C61.7015 42.5812 58.7298 45.6047 55.0808 45.6047Z"/>
</svg>
