<svg width="83" height="83" viewBox="0 0 83 83" xmlns="http://www.w3.org/2000/svg">
<path d="M66.5427 34.9084L66.1259 35.6515L66.7935 36.181L75.476 43.0676L68.064 50.1007L67.5567 50.5821L67.8348 51.2238L71.6989 60.1387L60.7097 60.3356L59.7951 60.3519L59.7301 61.2644L58.943 72.3184L49.5694 67.813L48.777 67.4321L48.2978 68.1692L42.3773 77.2756L35.4373 68.3251L34.9457 67.6911L34.2202 68.0336L24.1978 72.7646L23.6085 61.7293L23.5631 60.8793L22.7168 60.7883L11.6246 59.5962L15.9372 50.3545L16.2837 49.6118L15.6235 49.1261L6.79637 42.6328L15.1037 37.5942L15.8322 37.1523L15.5116 36.3628L11.136 25.5892L22.4397 24.9924L23.3384 24.9449L23.3856 24.0462L23.9736 12.841L33.9688 17.9524L34.7511 18.3525L35.2484 17.6282L41.3898 8.68571L48.1279 17.234L48.6241 17.8634L49.3465 17.5162L58.7238 13.009L59.5074 23.6202L59.5701 24.4695L60.4185 24.5429L71.8031 25.5273L66.5427 34.9084Z" stroke="#06A9DA" stroke-width="2"/>
<path d="M28.2422 38.7C29.2302 38.3187 30.1922 37.8333 31.1282 37.244C32.0642 36.6373 32.9222 35.8833 33.7022 34.982H35.4182V53H33.0002V38.336C32.7922 38.5267 32.5322 38.726 32.2202 38.934C31.9256 39.142 31.5962 39.3413 31.2322 39.532C30.8856 39.7227 30.5129 39.9047 30.1142 40.078C29.7329 40.2513 29.3602 40.3987 28.9962 40.52L28.2422 38.7ZM41.8 43.978C41.8 40.962 42.3287 38.6393 43.386 37.01C44.4607 35.3807 45.9427 34.566 47.832 34.566C49.7213 34.566 51.1947 35.3807 52.252 37.01C53.3267 38.6393 53.864 40.962 53.864 43.978C53.864 46.994 53.3267 49.3167 52.252 50.946C51.1947 52.5753 49.7213 53.39 47.832 53.39C45.9427 53.39 44.4607 52.5753 43.386 50.946C42.3287 49.3167 41.8 46.994 41.8 43.978ZM51.316 43.978C51.316 42.99 51.2553 42.054 51.134 41.17C51.03 40.286 50.8393 39.5147 50.562 38.856C50.302 38.1973 49.9467 37.6773 49.496 37.296C49.0453 36.8973 48.4907 36.698 47.832 36.698C47.1733 36.698 46.6187 36.8973 46.168 37.296C45.7173 37.6773 45.3533 38.1973 45.076 38.856C44.816 39.5147 44.6253 40.286 44.504 41.17C44.4 42.054 44.348 42.99 44.348 43.978C44.348 44.966 44.4 45.902 44.504 46.786C44.6253 47.67 44.816 48.4413 45.076 49.1C45.3533 49.7587 45.7173 50.2873 46.168 50.686C46.6187 51.0673 47.1733 51.258 47.832 51.258C48.4907 51.258 49.0453 51.0673 49.496 50.686C49.9467 50.2873 50.302 49.7587 50.562 49.1C50.8393 48.4413 51.03 47.67 51.134 46.786C51.2553 45.902 51.316 44.966 51.316 43.978Z"/>
</svg>
