<svg width="27" height="18" viewBox="0 0 27 18" xmlns="http://www.w3.org/2000/svg">
<path d="M26.4092 2.57002L26.4408 2.7784C26.1138 1.68689 25.2331 0.848413 24.1149 0.540806L24.0938 0.535844C21.9842 1.22074e-05 13.5138 1.22164e-05 13.5138 1.22164e-05C13.5138 1.22164e-05 5.06459 -0.0099106 2.93909 0.535844C1.79987 0.848413 0.91381 1.68689 0.592085 2.75855L0.586811 2.7784C-0.199042 6.64334 -0.204316 11.2872 0.62373 15.425L0.586811 15.2167C0.91381 16.3082 1.7946 17.1466 2.91272 17.4542L2.93382 17.4592C5.03822 18 13.5086 18 13.5086 18C13.5086 18 21.9578 18 24.0833 17.4592C25.2278 17.1466 26.1086 16.3082 26.4303 15.2415L26.4356 15.2216C26.7942 13.4256 26.9999 11.3567 26.9999 9.24312C26.9999 9.16373 26.9999 9.08931 26.9999 9.00993C26.9999 8.93551 26.9999 8.85116 26.9999 8.76682C27.0052 6.64334 26.7995 4.57443 26.4092 2.57002ZM10.8134 12.86V5.14003L17.865 9.00497L10.8134 12.86Z"/>
</svg>
