<svg width="14" height="11" viewBox="0 0 14 11" fill="none" xmlns="http://www.w3.org/2000/svg">
<path d="M13.1468 4.96336L9.47208 0.932874C9.21608 0.652086 8.80542 0.652086 8.54942 0.932874C8.29342 1.21366 8.29342 1.66409 8.54942 1.94488L11.1094 4.75277L1.32275 4.75277C0.960081 4.75277 0.666748 5.0745 0.666748 5.47229C0.666748 5.87007 0.960081 6.19181 1.32275 6.19181L11.1041 6.19181L8.54408 8.99969C8.28808 9.28048 8.28808 9.73091 8.54408 10.0117C8.80008 10.2925 9.21075 10.2925 9.46675 10.0117L13.1414 5.98122C13.2694 5.84082 13.3334 5.65948 13.3334 5.47229C13.3334 5.28509 13.2748 5.10375 13.1468 4.96336Z" fill="white"/>
</svg>
