<svg width="12" height="20" viewBox="0 0 12 20" xmlns="http://www.w3.org/2000/svg">
<path d="M1.00295 0.319677L0.332829 0.974806C0.123552 1.18099 0.00825919 1.4553 0.00825918 1.74847C0.00825918 2.04148 0.123552 2.31612 0.332829 2.5223L7.92462 9.99553L0.324405 17.4774C0.115127 17.6832 2.43522e-08 17.9579 2.0858e-08 18.2509C1.73639e-08 18.5439 0.115127 18.8187 0.324405 19.0247L0.990392 19.68C1.42348 20.1067 2.12895 20.1067 2.56204 19.68L11.6436 10.772C11.8527 10.5661 12 10.2918 12 9.99618L12 9.99276C12 9.69959 11.8525 9.42528 11.6436 9.21942L2.58665 0.319677C2.37754 0.113497 2.09046 0.000326182 1.79282 2.13791e-08C1.495 1.78277e-08 1.21189 0.113497 1.00295 0.319677Z"/>
</svg>
