<svg width="90" height="87" viewBox="0 0 90 87" xmlns="http://www.w3.org/2000/svg">
<path d="M79.2999 18.9889L40.5418 0.125977C40.1917 -0.0419922 39.7916 -0.0419922 39.4582 0.125977L0.700146 18.9889C0.266722 19.2072 0 19.6439 0 20.1311V65.9025C0 66.3896 0.266722 66.8264 0.700146 67.0447L39.4582 85.8908C39.6249 85.9748 39.8083 86.0084 40.0083 86.0084C40.2084 86.0084 40.3751 85.9748 40.5584 85.8908L79.2999 67.0279C79.7333 66.8096 80 66.3729 80 65.8857V20.1143C80 19.6271 79.7333 19.1904 79.2999 18.9889ZM40.0083 2.6623L75.8825 20.1143L65.4803 25.1701C65.4136 25.1197 65.3469 25.0693 65.2636 25.0357L29.6395 7.71816L40.0083 2.6623ZM56.6285 32.292L63.4799 28.9662V42.1518L56.6285 45.4775V32.292ZM26.8056 9.1291L62.6297 26.5475L55.2949 30.1084L19.4874 12.7068L26.8056 9.1291ZM38.7581 82.7498L2.50052 65.1131V22.1299L35.3907 38.0869L38.7581 39.7666V82.7498ZM40.0083 37.5662L36.5409 35.8865L4.13419 20.1143L16.5534 14.0674L52.4443 31.5361L40.0083 37.5662ZM77.4995 65.1131L41.2419 82.7498V39.7666L54.1113 33.535V47.4932C54.1113 47.9299 54.328 48.333 54.6947 48.5682C54.8948 48.7025 55.1282 48.7529 55.3615 48.7529C55.5449 48.7529 55.7283 48.7193 55.9116 48.6353L65.2636 44.0834C65.697 43.865 65.9637 43.4283 65.9637 42.9412V27.74L77.4995 22.1299V65.1131Z"/>
<path d="M12.8188 60.2267L7.13427 57.4553C6.51747 57.1529 5.76731 57.4217 5.46725 58.0431C5.16719 58.6646 5.43391 59.4205 6.05071 59.7228L11.7352 62.4943C11.9186 62.5783 12.102 62.6119 12.2853 62.6119C12.7521 62.6119 13.2022 62.3431 13.4189 61.9064C13.7023 61.2849 13.4356 60.5291 12.8188 60.2267Z"/>
<path d="M18.0532 56.7835L7.13427 51.4756C6.51747 51.1733 5.76731 51.442 5.46725 52.0635C5.16719 52.685 5.43391 53.4409 6.05071 53.7432L16.9696 59.051C17.153 59.135 17.3364 59.1686 17.5198 59.1686C17.9865 59.1686 18.4366 58.8999 18.6533 58.4631C18.9367 57.8417 18.67 57.0858 18.0532 56.7835Z"/>
<circle cx="76.5" cy="68.5099" r="12.5" fill="white"  stroke-width="2"/>
<path d="M82.223 69.1508V67.8689H77.1409V62.7868H75.8591V67.8689H70.777V69.1508H75.8591V74.2329H77.1409V69.1508H82.223Z"/>
</svg>
