<svg version="1.2" baseProfile="tiny-ps" xmlns="http://www.w3.org/2000/svg" viewBox="0 0 18 18" width="18" height="18">
	<title>News-4</title>
	<style>
		tspan { white-space:pre }
		.shp0 { fill: #1a8174 } 
	</style>
	<g id="News-4">
		<g id="Time">
			<path id="Shape 674" class="shp0" d="M13.69 9C13.69 8.71 13.93 8.47 14.22 8.47L15.33 8.47C15.08 5.46 12.67 3.04 9.65 2.79L9.65 3.9C9.65 4.19 9.41 4.43 9.12 4.43C8.83 4.43 8.6 4.19 8.6 3.9L8.6 2.79C5.58 3.04 3.17 5.46 2.92 8.47L4.03 8.47C4.32 8.47 4.55 8.71 4.55 9C4.55 9.29 4.32 9.53 4.03 9.53L2.92 9.53C3.17 12.54 5.58 14.96 8.6 15.21L8.6 14.1C8.6 13.81 8.83 13.57 9.12 13.57C9.41 13.57 9.65 13.81 9.65 14.1L9.65 15.21C12.67 14.96 15.08 12.54 15.33 9.53L14.22 9.53C13.93 9.53 13.69 9.29 13.69 9ZM12.31 6.48L9.5 9.37C9.31 9.57 8.99 9.58 8.78 9.4L6.68 7.56C6.46 7.37 6.44 7.04 6.63 6.82C6.82 6.6 7.16 6.58 7.38 6.77L9.09 8.27L11.55 5.74C11.75 5.54 12.09 5.53 12.3 5.74C12.51 5.94 12.51 6.27 12.31 6.48L12.31 6.48ZM9.12 0C4.16 0 0.13 4.04 0.13 9C0.13 13.96 4.16 18 9.12 18C14.08 18 18.12 13.96 18.12 9C18.12 4.04 14.08 0 9.12 0ZM9.12 16.29C5.11 16.29 1.84 13.02 1.84 9C1.84 4.98 5.11 1.71 9.12 1.71C13.14 1.71 16.41 4.98 16.41 9C16.41 13.02 13.14 16.29 9.12 16.29Z" />
		</g>
	</g>
</svg>