<svg width="20" height="17" viewBox="0 0 20 17" xmlns="http://www.w3.org/2000/svg">
<path d="M19.7358 12.7165C19.7087 12.4311 19.5359 12.2119 19.3846 11.9813C18.3385 10.3861 17.2924 8.79286 16.2444 7.19957C16.159 7.06916 16.0523 6.95387 15.9708 6.82157C15.8291 6.59098 15.2643 6.5872 15.1149 6.8159C14.75 7.37156 14.358 7.91211 13.9931 8.46588C13.1334 9.77378 12.2814 11.0855 11.4294 12.3971C11.3906 12.4576 11.3692 12.5351 11.3654 12.6069C11.3091 13.5576 11.5361 14.4402 12.1009 15.2189C12.949 16.3889 14.1193 16.9956 15.5943 16.9899C17.5991 16.9842 19.3069 15.5648 19.6582 13.6427C19.6873 13.4858 19.7087 13.327 19.7358 13.1701C19.7358 13.0189 19.7358 12.8677 19.7358 12.7165ZM12.8209 12.622C13.7311 11.2234 14.6278 9.84938 15.536 8.45454C16.4637 9.84371 17.3584 11.2196 18.2415 12.622C16.4268 12.622 14.6375 12.622 12.8209 12.622Z"/>
<path d="M10.2166 0C10.0653 0.0159827 9.91389 0.023974 9.76445 0.0499459C9.23462 0.139848 8.77466 0.383584 8.37681 0.749188C8.09928 1.00491 7.86833 1.29659 7.70724 1.64422C7.67425 1.71614 7.63155 1.74211 7.55198 1.74211C6.38947 1.74011 5.22501 1.74411 4.0625 1.73612C3.86066 1.73412 3.69182 1.78806 3.52491 1.88995C2.91551 2.25755 2.7913 3.05869 3.2435 3.61608C3.47057 3.89578 3.7578 4.00366 4.09549 4.00965C4.58068 4.01964 5.06393 4.02963 5.54912 4.03363C6.21868 4.03762 6.8863 4.03563 7.55587 4.03163C7.63738 4.03163 7.68201 4.0576 7.72083 4.13152C7.93237 4.54308 8.20796 4.89669 8.57282 5.17639C9.12982 5.60193 9.74892 5.76176 10.4398 5.7198C11.4781 5.65587 12.1904 5.10047 12.6969 4.21144C12.7726 4.07758 12.8464 4.03163 12.9919 4.03163C14.0555 4.02963 15.1171 4.01964 16.1806 4.00766C16.3223 4.00566 16.4639 3.99567 16.6056 3.98768C16.8482 3.9717 17.0287 3.83385 17.1859 3.66203C17.7021 3.09664 17.5546 2.22359 16.8909 1.85998C16.7356 1.77608 16.5804 1.73412 16.4038 1.73612C15.2432 1.74211 14.0846 1.73812 12.924 1.74211C12.8405 1.74211 12.7959 1.71814 12.7532 1.64022C12.2719 0.725214 11.548 0.159827 10.533 0.0159827C10.5175 0.0139848 10.5019 0.0059935 10.4884 0C10.3971 0 10.3079 0 10.2166 0ZM9.30837 2.86689C9.31031 2.35745 9.7334 1.92192 10.2225 1.92192C10.7368 1.92192 11.1715 2.35545 11.1676 2.86689C11.1637 3.37035 10.7154 3.82585 10.2225 3.82585C9.7334 3.82585 9.30643 3.37634 9.30837 2.86689Z" />
<path d="M4.92783 17.0001C6.96369 16.9963 8.66767 15.6139 9.03059 13.6528C9.08687 13.3465 9.08687 13.0269 9.10822 12.7148C9.11598 12.5976 9.07329 12.4955 9.00924 12.3952C8.18442 11.1206 7.36542 9.84415 6.53672 8.57333C6.15827 7.99277 5.74489 7.43111 5.37421 6.84676C5.20924 6.58579 4.63672 6.59714 4.46787 6.85811C3.81966 7.85661 3.13652 8.8343 2.48442 9.8328C1.92354 10.6895 1.3879 11.5594 0.840602 12.4236C0.766853 12.5409 0.735801 12.6619 0.735801 12.798C0.745504 14.2409 1.31026 15.4115 2.52324 16.2606C3.2122 16.7448 4.06808 17.0001 4.92783 17.0001ZM7.62354 12.5862C7.61772 12.5957 7.6119 12.6051 7.60608 12.6146C5.8167 12.6524 4.02732 12.6543 2.20689 12.6127C3.11905 11.2133 4.01374 9.84415 4.92201 8.4523C5.83611 9.84982 6.7308 11.219 7.62354 12.5862Z"/>
</svg>
