<svg version="1.2" baseProfile="tiny-ps" xmlns="http://www.w3.org/2000/svg" viewBox="0 0 23 15" width="23" height="15">
	<title>News-4</title>
	<style>
		tspan { white-space:pre }
		.shp0 { fill: #1a8174 } 
	</style>
	<g id="News-4">
		<g id="Vews">
			<path id="Shape 668" class="shp0" d="M11.52 3.64C9.48 3.64 7.83 5.27 7.83 7.27C7.83 9.28 9.48 10.91 11.52 10.91C13.56 10.91 15.22 9.28 15.22 7.27C15.22 5.27 13.56 3.64 11.52 3.64ZM11.24 6.19C10.78 6.19 10.4 6.57 10.4 7.02L9.18 7.02C9.2 5.89 10.12 4.99 11.24 4.99L11.24 6.19ZM22.74 6.52C21.49 4.99 17.03 0 11.52 0C6.02 0 1.56 4.99 0.31 6.52C-0.05 6.95 -0.05 7.57 0.31 8.02C1.56 9.55 6.02 14.54 11.52 14.54C17.03 14.54 21.49 9.55 22.74 8.02C23.09 7.6 23.09 6.97 22.74 6.52ZM11.52 12.54C8.56 12.54 6.17 10.18 6.17 7.27C6.17 4.36 8.56 2.01 11.52 2.01C14.48 2.01 16.87 4.36 16.87 7.27C16.87 10.18 14.48 12.54 11.52 12.54Z" />
		</g>
	</g>
</svg>