<svg width="19" height="15" viewBox="0 0 19 15" xmlns="http://www.w3.org/2000/svg">
<path d="M19 2.46109L19 1.23054L6.0416 1.23054L6.0416 -5.66429e-07L2.4167 -7.24879e-07L2.4167 1.23054L0.000102943 1.23054L0.000102889 2.46108L2.4167 2.46108L2.4167 3.69163L6.0416 3.69163L6.0416 2.46108L19 2.46109Z"/>
<path d="M19 13.7694L19 12.5389L10.0586 12.5389L10.0586 11.3083L6.43368 11.3083L6.43368 12.5389L0.000102943 12.5389L0.000102889 13.7694L6.43368 13.7694L6.43368 15L10.0586 15L10.0586 13.7694L19 13.7694Z"/>
<path d="M19 8.09475L19 6.86421L16.8391 6.86421L16.8391 5.63367L13.2142 5.63367L13.2142 6.86421L0.000102943 6.86421L0.000102889 8.09475L13.2142 8.09475L13.2142 9.3253L16.8391 9.3253L16.8391 8.09475L19 8.09475Z"/>
</svg>
