<svg width="25" height="25" viewBox="0 0 25 25" xmlns="http://www.w3.org/2000/svg">
<g clip-path="url(#clip0_372:454009)">
<path d="M2.81716 2.81239C6.54915 -0.929937 12.6083 -0.938379 16.3506 2.79361C19.9616 6.39456 20.1143 12.1945 16.698 15.9806L17.4289 16.7114C18.0193 16.1209 18.9767 16.1208 19.5672 16.7112C19.5672 16.7113 19.5673 16.7114 19.5674 16.7114L24.557 21.7011C25.1476 22.2915 25.1477 23.2489 24.5572 23.8394C24.5572 23.8395 24.5571 23.8395 24.557 23.8396L23.8444 24.5523C23.2539 25.1425 22.2968 25.1425 21.7064 24.5523L16.7167 19.5626C16.1262 18.9721 16.1261 18.0148 16.7165 17.4243C16.7166 17.4242 16.7166 17.4242 16.7167 17.4241L15.9859 16.6933C12.0647 20.2369 6.01333 19.9308 2.46971 16.0097C-0.953135 12.2221 -0.80023 6.4146 2.81716 2.81239ZM17.4289 18.8494L22.4185 23.8391C22.6154 24.0359 22.9344 24.0359 23.1312 23.8391L23.8439 23.1259C24.0403 22.9292 24.0403 22.6105 23.8439 22.4138L18.8542 17.4241C18.6549 17.2335 18.3409 17.2335 18.1415 17.4241L17.4289 18.1373C17.2324 18.334 17.2324 18.6527 17.4289 18.8494ZM3.52932 15.6424C6.87543 18.9884 12.3005 18.9883 15.6465 15.6422C18.9925 12.2961 18.9924 6.87104 15.6463 3.52505C12.3003 0.179133 6.87537 0.179133 3.52932 3.52505C0.188696 6.87343 0.188696 12.294 3.52932 15.6424Z"/>
<path d="M4.24436 4.24017L4.95703 4.95284C2.40265 7.51345 2.40265 11.6584 4.95703 14.219L4.24436 14.9317C1.29617 11.9776 1.29617 7.19429 4.24436 4.24017Z"/>
</g>
<defs>
<clipPath id="clip0_372:454009">
<rect width="25" height="25" transform="matrix(-1 0 0 1 25 0)"/>
</clipPath>
</defs>
</svg>
