<svg width="15" height="15" viewBox="0 0 15 15" xmlns="http://www.w3.org/2000/svg">
<g clip-path="url(#clip0)">
<path d="M14.8678 2.98022L10.3186 7.50012L14.8678 12.02C14.95 11.8481 14.9999 11.6581 14.9999 11.4552V3.54504C14.9999 3.3421 14.95 3.15211 14.8678 2.98022Z"/>
<path d="M13.6818 2.22656H1.31848C1.11554 2.22656 0.925547 2.27646 0.753662 2.35869L6.56801 8.14374C7.08211 8.65785 7.91813 8.65785 8.43223 8.14374L14.2466 2.35869C14.0747 2.27646 13.8847 2.22656 13.6818 2.22656Z"/>
<path d="M0.132129 2.98022C0.0498926 3.15211 0 3.3421 0 3.54504V11.4552C0 11.6581 0.0498926 11.8482 0.132129 12.02L4.68132 7.50012L0.132129 2.98022Z"/>
<path d="M9.69738 8.12134L9.05364 8.76508C8.19703 9.62169 6.80317 9.62169 5.94656 8.76508L5.30285 8.12134L0.753662 12.6412C0.925547 12.7235 1.11554 12.7734 1.31848 12.7734H13.6818C13.8847 12.7734 14.0747 12.7235 14.2466 12.6412L9.69738 8.12134Z"/>
</g>
<defs>
<clipPath id="clip0">
<rect width="15" height="15"/>
</clipPath>
</defs>
</svg>
