<svg width="71" height="72" viewBox="0 0 71 72" xmlns="http://www.w3.org/2000/svg">
<path d="M69.7734 16.7196C70.8843 15.6332 71.278 14.0529 70.7999 12.5714C70.3218 11.0899 69.0703 10.0459 67.5376 9.8201L61.3644 8.91711C60.7316 8.83245 60.1973 8.43739 59.916 7.85891L57.1599 2.2575C56.4708 0.86067 55.0928 0 53.546 0C51.9992 0 50.607 0.86067 49.9321 2.2575L47.1759 7.87301C46.8947 8.43739 46.3603 8.83245 45.7275 8.93122L39.5544 9.83421C38.0216 10.06 36.7701 11.1182 36.292 12.5855C35.8139 14.067 36.2076 15.6473 37.3185 16.7337L41.7902 21.1076C42.2402 21.545 42.4511 22.194 42.3386 22.8148L41.284 28.9806C41.0168 30.5044 41.6355 32.0282 42.887 32.9453C43.5901 33.4674 44.4198 33.7213 45.2494 33.7213C45.8963 33.7213 46.5291 33.5661 47.1337 33.2557L52.6601 30.3492C53.2225 30.0529 53.8834 30.0529 54.4459 30.3492L59.9723 33.2557C61.3363 33.9753 62.9674 33.8624 64.219 32.9453C65.4705 32.0282 66.0892 30.2363 65.822 28.6984L65.6251 27.5132C65.6111 27.4286 65.583 27.3439 65.5548 27.2734L65.2314 25.8483L64.8517 23.4356C64.8517 23.3086 64.8377 23.1675 64.8096 23.0123L64.7674 22.8007C64.6549 22.1799 64.8658 21.5309 65.3158 21.0935L69.7734 16.7196ZM63.8393 19.5838C62.9112 20.5009 62.4753 21.7989 62.6721 23.097V23.1252C62.6721 23.1393 62.6721 23.1534 62.6862 23.1817L62.7143 23.3933C62.7143 23.4215 62.7284 23.4638 62.7425 23.4921L63.544 27.8942L63.6002 28.1905L63.7549 29.0653C63.8815 29.7989 63.6002 30.7866 62.9956 31.2381C62.3909 31.6755 61.6316 31.7319 60.9707 31.3792L55.4443 28.4727C54.2631 27.8519 52.871 27.8519 51.6898 28.4727L46.1635 31.3792C45.5025 31.7319 44.7432 31.6755 44.1385 31.2381C43.5339 30.8007 43.2526 30.0952 43.3792 29.3474L44.4338 23.1817C44.6588 21.8695 44.2229 20.5291 43.2808 19.5979L38.8091 15.224C38.2747 14.7019 38.0919 13.9541 38.3169 13.2487C38.5419 12.5291 39.1325 12.0494 39.8637 11.9365L46.0369 11.0335C47.3447 10.836 48.4837 10.0176 49.0743 8.81834L51.8304 3.20282C52.1679 2.52557 52.8007 2.13051 53.56 2.13051C54.3053 2.13051 54.9522 2.52557 55.2896 3.20282L58.0458 8.81834C58.6364 10.0176 59.7754 10.836 61.0832 11.0335L67.2563 11.9365C68.0016 12.0494 68.5782 12.5291 68.8031 13.2487C69.0281 13.9683 68.8594 14.7019 68.311 15.224L63.8393 19.5838Z"/>
<path d="M58.0195 45.7283C58.7648 44.8536 59.2148 43.7248 59.2148 42.4832C59.2148 39.746 56.993 37.5167 54.265 37.5167L38.2062 37.5026C38.2062 37.5026 38.0234 36.9805 37.9109 36.7407C37.6719 36.2186 37.5735 35.6402 37.6438 35.0899C37.8828 33.2839 37.9391 31.4073 37.9813 29.8976C38.1078 26.0317 37.3344 23.1957 35.6329 21.2627C33.9174 19.3156 31.4565 18.1869 28.8691 18.1869C28.8551 18.1869 28.8269 18.1869 28.8129 18.1869C27.3645 18.201 26.1692 19.4003 26.1692 20.8818V25.5802C26.1692 28.5714 25.6911 32.7336 23.385 35.5837C20.9382 38.6031 18.843 38.5749 15.3416 38.5326C15.215 38.5326 15.1025 38.5326 14.9759 38.5326V37.2627C14.9759 35.1604 13.2604 33.4391 11.1652 33.4391H3.81078C1.71555 33.425 0 35.1322 0 37.2486V52.7125V54.9417V68.1763C0 70.2786 1.71555 71.9999 3.81078 71.9999H11.1792C13.2745 71.9999 14.99 70.2786 14.99 68.1763V66.5819H16.4103C17.0993 66.5819 17.7883 66.8218 18.3367 67.2592C18.4774 67.3721 18.6461 67.5132 18.843 67.6825C20.1648 68.8112 22.6256 70.9135 26.1411 70.9135H52.0572C54.7852 70.9135 57.007 68.6842 57.007 65.947C57.007 64.7618 56.5852 63.6754 55.8961 62.8148C57.8367 62.1375 59.2288 60.2892 59.2288 58.1163C59.2288 56.8747 58.7788 55.746 58.0336 54.8712C59.8194 54.1234 61.0709 52.3456 61.0709 50.2857C61.0428 48.2539 59.7913 46.4761 58.0195 45.7283ZM12.8667 68.1763C12.8667 69.1216 12.1073 69.8835 11.1652 69.8835H3.81078C2.86863 69.8835 2.10929 69.1216 2.10929 68.1763V54.9417V52.7125V37.2486C2.10929 36.3033 2.86863 35.5414 3.81078 35.5414H11.1792C12.1214 35.5414 12.8807 36.3033 12.8807 37.2486V68.1763H12.8667ZM45.2513 39.6331H54.265C55.8258 39.6331 57.1055 40.917 57.1055 42.4832C57.1055 44.0493 55.8258 45.3333 54.265 45.3333H45.2513C43.6904 45.3333 42.4108 44.0493 42.4108 42.4832C42.4108 40.917 43.6904 39.6331 45.2513 39.6331ZM38.9796 68.7971H26.1271C23.385 68.7971 21.4726 67.1604 20.207 66.074C20.0101 65.9047 19.8273 65.7495 19.6445 65.6084C18.7164 64.8747 17.5774 64.4655 16.4103 64.4655H14.99V40.6349C15.1025 40.6349 15.215 40.6349 15.3275 40.6349C19.0258 40.6772 21.9507 40.7195 25.0302 36.91C26.5208 35.0758 28.2926 31.619 28.2926 25.5661V20.8677C28.2926 20.5573 28.5316 20.3033 28.8269 20.2892C28.841 20.2892 28.8551 20.2892 28.8691 20.2892C30.8237 20.2892 32.7502 21.164 34.0439 22.6454C35.3798 24.1693 35.9704 26.5114 35.872 29.8271C35.8298 31.2945 35.7735 33.1146 35.5485 34.8077C35.422 35.7671 35.5767 36.7407 35.9985 37.6296V37.6437C35.9985 37.6578 35.9985 37.6578 36.0126 37.6719C36.3501 38.462 36.6032 39.3368 36.6454 40.1975C36.7016 41.2839 36.4766 42.3703 35.9985 43.4426C35.9845 43.4708 34.9861 45.6719 32.244 46.8994C31.7096 47.1393 31.4706 47.7601 31.7096 48.2962C32.5252 50.1446 35.5626 47.365 36.3079 46.589C36.9407 45.9259 37.5594 45.1499 37.925 44.3033C38.5437 42.9347 38.825 41.5096 38.7547 40.0987C38.7406 39.9435 38.7265 39.7742 38.7125 39.6049H41.2155C40.639 40.4091 40.3015 41.4109 40.3015 42.4691C40.3015 44.529 41.553 46.2927 43.3388 47.0546C42.5936 47.9294 42.1436 49.0581 42.1436 50.2998C42.1436 51.5414 42.5936 52.6701 43.3388 53.5449C41.553 54.2927 40.3015 56.0705 40.3015 58.1305C40.3015 59.3156 40.7233 60.4021 41.4124 61.2627C39.4718 61.94 38.0797 63.7883 38.0797 65.9611C38.0797 67.0052 38.4172 67.9929 38.9796 68.7971ZM52.0432 68.7971H43.0295C41.4686 68.7971 40.189 67.5132 40.189 65.947C40.189 64.3809 41.4686 63.0969 43.0295 63.0969H52.0432C53.604 63.0969 54.8837 64.3809 54.8837 65.947C54.8837 67.5132 53.604 68.7971 52.0432 68.7971ZM54.265 60.9805H45.2513C43.6904 60.9805 42.4108 59.6966 42.4108 58.1305C42.4108 56.5643 43.6904 55.2804 45.2513 55.2804H54.265C55.8258 55.2804 57.1055 56.5643 57.1055 58.1305C57.1055 59.6966 55.8258 60.9805 54.265 60.9805ZM56.093 53.164H47.0793C45.5184 53.164 44.2388 51.88 44.2388 50.3139C44.2388 48.7477 45.5184 47.4638 47.0793 47.4638H56.093C57.6539 47.4638 58.9335 48.7477 58.9335 50.3139C58.9335 51.88 57.6679 53.164 56.093 53.164Z" />
</svg>
