<svg width="72" height="72" viewBox="0 0 72 72" xmlns="http://www.w3.org/2000/svg">
<g clip-path="url(#clip0)">
<path d="M50.9254 44.3948L37.125 35.3903V13.5C37.125 13.2016 37.0065 12.9155 36.7955 12.7045C36.5845 12.4935 36.2984 12.375 36 12.375C35.7016 12.375 35.4155 12.4935 35.2045 12.7045C34.9935 12.9155 34.875 13.2016 34.875 13.5V36.6098L49.6946 46.2848C49.8184 46.3656 49.9569 46.4212 50.1023 46.4485C50.2476 46.4758 50.3968 46.4742 50.5415 46.4438C50.6862 46.4134 50.8235 46.3548 50.9455 46.2713C51.0675 46.1879 51.1719 46.0812 51.2528 45.9574C51.3336 45.8336 51.3892 45.6951 51.4165 45.5498C51.4438 45.4045 51.4422 45.2552 51.4118 45.1105C51.3814 44.9658 51.3228 44.8286 51.2393 44.7065C51.1559 44.5845 51.0492 44.4801 50.9254 44.3993V44.3948Z"/>
<path d="M36 0C28.8799 0 21.9197 2.11136 15.9995 6.06709C10.0793 10.0228 5.46511 15.6453 2.74035 22.2234C0.0155981 28.8015 -0.697322 36.0399 0.691746 43.0233C2.08081 50.0066 5.50948 56.4212 10.5442 61.4558C15.5789 66.4905 21.9935 69.9192 28.9768 71.3083C35.9601 72.6973 43.1985 71.9844 49.7766 69.2597C56.3548 66.5349 61.9772 61.9207 65.9329 56.0005C69.8887 50.0804 72 43.1201 72 36C72 26.4522 68.2072 17.2955 61.4559 10.5442C54.7046 3.79285 45.5478 0 36 0V0ZM60.6296 59.0389L58.4921 56.9014C58.2802 56.691 57.9933 56.5735 57.6946 56.5747C57.396 56.5758 57.1101 56.6956 56.8997 56.9076C56.6894 57.1196 56.5718 57.4064 56.573 57.7051C56.5742 58.0037 56.6939 58.2896 56.9059 58.5L59.0434 60.6375C53.0843 66.229 45.2924 69.4585 37.125 69.7219V66.375C37.125 66.0766 37.0065 65.7905 36.7955 65.5795C36.5845 65.3685 36.2984 65.25 36 65.25C35.7016 65.25 35.4155 65.3685 35.2045 65.5795C34.9935 65.7905 34.875 66.0766 34.875 66.375V69.7219C26.7083 69.4555 18.9181 66.2237 12.9611 60.6308L15.0986 58.4932C15.3091 58.2813 15.4268 57.9943 15.4257 57.6956C15.4247 57.3968 15.305 57.1107 15.093 56.9002C14.881 56.6898 14.5941 56.5721 14.2954 56.5731C13.9966 56.5742 13.7105 56.6939 13.5 56.9059L11.3625 59.0434C5.771 53.0843 2.54157 45.2924 2.27814 37.125H5.62502C5.92338 37.125 6.20953 37.0065 6.42051 36.7955C6.63149 36.5845 6.75002 36.2984 6.75002 36C6.75002 35.7016 6.63149 35.4155 6.42051 35.2045C6.20953 34.9935 5.92338 34.875 5.62502 34.875H2.27814C2.54449 26.7082 5.77629 18.9181 11.3693 12.9611L13.5068 15.0986C13.6117 15.2029 13.7362 15.2854 13.8731 15.3415C14.0099 15.3976 14.1565 15.4263 14.3044 15.4257C14.4524 15.4252 14.5987 15.3956 14.7352 15.3385C14.8717 15.2814 14.9955 15.198 15.0998 15.093C15.204 14.988 15.2865 14.8636 15.3427 14.7267C15.3988 14.5898 15.4274 14.4433 15.4269 14.2953C15.4264 14.1474 15.3967 14.001 15.3396 13.8646C15.2825 13.7281 15.1991 13.6042 15.0941 13.5L12.9566 11.3625C18.9158 5.77098 26.7076 2.54155 34.875 2.27813V5.625C34.875 5.92337 34.9935 6.20952 35.2045 6.4205C35.4155 6.63147 35.7016 6.75 36 6.75C36.2984 6.75 36.5845 6.63147 36.7955 6.4205C37.0065 6.20952 37.125 5.92337 37.125 5.625V2.27813C45.2918 2.54448 53.0819 5.77628 59.0389 11.3693L56.9014 13.5067C56.6909 13.7187 56.5732 14.0057 56.5743 14.3044C56.5753 14.6032 56.695 14.8893 56.907 15.0997C57.119 15.3102 57.4059 15.4279 57.7047 15.4269C58.0034 15.4258 58.2895 15.3061 58.5 15.0941L60.6375 12.9566C66.229 18.9158 69.4585 26.7076 69.7219 34.875H66.375C66.0766 34.875 65.7905 34.9935 65.5795 35.2045C65.3685 35.4155 65.25 35.7016 65.25 36C65.25 36.2984 65.3685 36.5845 65.5795 36.7955C65.7905 37.0065 66.0766 37.125 66.375 37.125H69.7219C69.4552 45.2919 66.223 53.0821 60.6296 59.0389Z"/>
</g>
<defs>
<clipPath id="clip0">
<rect width="72" height="72"/>
</clipPath>
</defs>
</svg>
