<?xml version="1.0" encoding="utf-8"?>
<!-- Generator: Adobe Illustrator 23.0.1, SVG Export Plug-In . SVG Version: 6.00 Build 0)  -->
<svg version="1.1" id="Шар_1" xmlns="http://www.w3.org/2000/svg" xmlns:xlink="http://www.w3.org/1999/xlink" x="0px" y="0px"
	 viewBox="0 0 1104.4 457" style="enable-background:new 0 0 1104.4 457;" xml:space="preserve">
<style type="text/css">
	.st0{fill:#1a8374;}
	.st1{fill:#7F1F6D;}
	.st2{fill:#fafafa;}
	.st3{fill:#1a8374;}
	.st4{fill:#171728;}
</style>
<g>
	<g id="Logo_black-1_2_">
		<circle class="st0" cx="227.7" cy="227.7" r="220.2"/>
		<path class="st1" d="M894.6,440.9"/>
		<path class="st2" d="M894.6,440.9"/>
		<path class="st2" d="M869.8,440.8"/>
	</g>
	<g>
		<path class="st3" d="M720.7,437.3h-27c-9.8,0-17.7-7.8-18-18h9c0,5,4,9,9,9h27c5,0,9-4.1,9-9c0-5-4.1-9-9-9h-27
			c-9.6,0-18-7.8-18-18c0-9.5,7.9-18,18-18h27c9.6,0,17.7,8,18,18h-9c0-5-4.1-9-9-9h-27c-5,0-9,4.1-9,9c0,5,4,9,9,9h27
			c9.5,0,18,8,18,18C738.7,428.9,730.8,437.3,720.7,437.3z"/>
		<path class="st3" d="M794.8,383.3v54h-9v-54h-27v-9h63v9H794.8z"/>
		<path class="st3" d="M894.9,374.3h9v45c0,9.5-7.9,18-18,18h-27c-9.6,0-18-7.8-18-18v-45h9v45c0,5,4.1,9,9,9h27c5,0,9-4.1,9-9
			V374.3z"/>
		<path class="st3" d="M986.9,419.3c0,9.5-7.9,18-18,18h-45v-63h45c9.6,0,17.7,8,18,18V419.3z M977.9,392.3c0-5-4.1-9-9-9h-36v45h36
			c5,0,9-4.1,9-9V392.3z"/>
		<path class="st3" d="M1005.9,374.3h9v63h-9V374.3z"/>
		<path class="st3" d="M1097,419.3c0,9.9-8.1,18-18,18h-27c-10,0-18-8-18-18v-27c0-9.9,8.1-18,18-18h27c9.5,0,18,8.2,18,18V419.3z
			 M1088,392.3c0-5-4.1-9-9-9h-27c-5,0-9,4.1-9,9v27c0,5,4,9,9,9h27c5,0,9-4.1,9-9V392.3z"/>
	</g>
	<g>
		<path class="st2" d="M189.3,137h-2.6h-74.1H110c-25,0-45.3,18.3-50.1,41l27.1,9.6c0-0.1,0-0.3,0-0.4l0,0
			c0.5-13.7,11.7-24.7,25.5-24.7h74.1c14.1,0,25.6,11.5,25.6,25.6h2.6h23h2.6C239.6,159.7,216.6,137,189.3,137z"/>
		<polygon class="st2" points="61.5,216.4 87,226.1 87.3,216.1 61.5,206.6 58.9,205.6 58.9,215.4 61.5,216.4 		"/>
		<path class="st2" d="M61.5,197.5l25.6,9.8l0.2-10.1l-25.8-9.6c0,0,0,0,0,0l-2.5-0.9c0,0.5-0.1,0.9-0.1,1.4v8.4L61.5,197.5
			L61.5,197.5z"/>
		<polygon class="st2" points="87,245 87,235 61.5,225.5 58.9,224.5 58.9,234.3 73.6,239.9 		"/>
		<path class="st2" d="M138.2,213.7h-2.6v25.6h2.6h74.1v25.6c0,14.1-11.5,25.6-25.6,25.6h-74.1c-14.1,0-25.6-11.5-25.6-25.6V253
			l-2.6-1l-25.5-9.9v22.7c0,28.9,23.8,51.1,51.1,51.1h2.6h74.1h2.6c28.6,0,51.1-24,51.1-51.1v-51.1h-2.6H138.2z"/>
		<path class="st2" d="M366.8,185.1h-2.6h-86.9h-2.6v129.6h2.6h15.3h2.6v-37h56.3l35.8,37h2.6H400h2.6v-13.1l-24.9-25.7
			c14.8-5.2,24.9-19.4,24.9-35.2v-18.5C402.6,201.6,385.6,185.1,366.8,185.1z M295.3,259.2v-55.5h69c9.8,0,17.9,8.3,17.9,18.5v18.5
			c0,10.2-8.1,18.5-17.9,18.5H295.3z"/>
		<polygon class="st4" points="474.1,185.1 471.5,185.1 471.5,314.7 474.1,314.7 596.8,314.7 599.3,314.7 599.3,296.2 596.8,296.2 
			492,296.2 492,259.2 578.9,259.2 581.5,259.2 581.5,240.7 578.9,240.7 492,240.7 492,203.6 596.8,203.6 599.3,203.6 599.3,185.1 
			596.8,185.1 		"/>
		<polygon class="st4" points="640.7,185.1 638.1,185.1 638.1,314.7 640.7,314.7 763.3,314.7 765.9,314.7 765.9,296.2 763.3,296.2 
			658.6,296.2 658.6,259.2 745.4,259.2 748,259.2 748,240.7 745.4,240.7 658.6,240.7 658.6,203.6 763.3,203.6 765.9,203.6 
			765.9,185.1 763.3,185.1 		"/>
		<polygon class="st4" points="914.6,185.1 912,185.1 912,280.4 825.2,185.1 822.6,185.1 807.3,185.1 804.7,185.1 804.7,314.7 
			807.3,314.7 822.6,314.7 825.2,314.7 825.2,218 912,314.7 914.6,314.7 929.9,314.7 932.5,314.7 932.5,185.1 929.9,185.1 		"/>
		<path class="st4" d="M1062.4,240.7h-2.6h-51.1c-9.8,0-17.9-8.3-17.9-18.5c0-10.2,8.1-18.5,17.9-18.5h51.1
			c9.8,0,17.9,8.3,17.9,18.5h2.6h15.3h2.6c-0.5-20.6-16.6-37-35.8-37h-2.6h-51.1h-2.6c-20,0-35.8,17.4-35.8,37
			c0,20.9,16.6,37,35.8,37h2.6h51.1c9.8,0,17.9,8.3,17.9,18.5c0,10.2-8.1,18.5-17.9,18.5h-51.1c-9.8,0-17.9-8.3-17.9-18.5h-2.6
			h-15.3h-2.6c0.5,20.9,16.3,37,35.8,37h2.6h51.1h2.6c20,0,35.8-17.4,35.8-37C1098.2,257.1,1081.2,240.7,1062.4,240.7z"/>
	</g>
</g>
</svg>
