<svg width="256" height="35" viewBox="0 0 256 35" fill="none" xmlns="http://www.w3.org/2000/svg">
<path d="M61.7144 11.0759C62.1531 7.90083 61.7144 6.12868 60.7638 5.02109C59.6669 3.69198 57.912 3.47046 56.0108 3.47046H43.0682C41.4595 3.47046 40.3627 4.06118 39.7777 4.57805C38.8271 5.46413 38.5346 6.7194 38.4615 7.60547L36.1216 25.5485H43.6532L44.4575 19.1983H54.329C55.5721 19.1983 57.4002 18.9029 58.5701 18.0169C60.91 16.3924 61.495 12.6266 61.7144 11.0759ZM54.1097 11.2236C53.9634 12.1097 53.6709 12.7742 53.2322 13.1434C52.501 13.808 51.6235 13.7342 50.6729 13.7342H45.2619L45.7006 10.2637C45.7737 9.82066 45.9931 8.93459 47.163 8.93459H51.331C52.2085 8.93459 53.0859 8.93459 53.6709 9.45146C54.2559 9.96834 54.1828 10.6329 54.1097 11.2236Z" fill="#585858"/>
<path d="M75.4614 3.24902C71.8784 3.24902 70.7085 4.28278 69.7579 5.90725L58.4971 25.5486H66.4674L68.8804 20.9705H77.2895L78.5326 25.5486H86.5029L80.4337 5.90725C79.6294 3.47054 77.6551 3.24902 75.4614 3.24902ZM71.3666 15.9494L74.2183 10.3376C74.2915 10.1899 74.5108 9.89458 74.584 9.89458C74.6571 9.89458 74.8033 10.1899 74.8033 10.3376L76.1926 15.9494H71.3666Z" fill="#585858"/>
<path d="M108.146 16.6141C108.146 16.7618 108.073 17.131 107.708 17.131C107.415 17.131 107.269 16.8356 107.123 16.6141L100.103 5.2428C98.9329 3.32297 96.6662 3.17529 95.4231 3.17529C92.7176 3.17529 90.012 4.20905 89.6464 7.08879L87.2334 25.5487H93.0832L94.765 12.4791C94.8381 11.8145 95.2037 11.8145 95.35 11.8145C95.5693 11.8145 95.7887 12.1099 95.9349 12.3314L102.955 23.6289C104.198 25.6225 105.953 25.844 107.781 25.844C112.68 25.844 113.265 22.6689 113.411 21.9305L114.727 13.5128H108.658L108.146 16.6141Z" fill="#585858"/>
<path d="M150.924 4.94727C148.876 2.14137 145.074 0.812256 141.271 0.812256H114.801C113.119 0.812256 111.438 1.55065 110.487 2.51057C109.244 3.76584 109.025 5.61183 108.805 6.94094L108.513 9.15613H137.469C138.347 9.37765 139.078 9.82069 139.736 10.4114C140.248 10.9283 140.613 11.5928 140.906 12.4789C141.271 13.7342 141.418 15.3587 141.125 17.5738C140.54 22.4473 139.297 23.9979 138.785 24.5148C137.25 26.1392 134.617 26.4346 132.131 26.4346H130.596C130.449 26.4346 129.353 26.4346 128.841 25.8439C128.402 25.327 128.548 24.5148 128.621 23.8502L130.011 13.365H118.969L116.849 29.9051C116.629 31.5295 117.141 32.8586 117.945 33.7447C119.042 34.9261 120.797 35 121.821 35H137.835C142.588 35 146.171 33.0802 148.145 30.7173C150.192 28.3544 151.582 24.3671 152.386 17.7215C152.605 15.8017 152.752 14.1034 152.752 12.5528C152.752 11.3713 152.679 10.3376 152.532 9.30381C152.313 7.6055 151.801 6.20255 150.924 4.94727Z" fill="#585858"/>
<path d="M159.698 2.21521C158.309 3.39664 157.943 4.79959 157.724 6.12871L157.358 9.22997H187.412L188.435 0.812256H164.013C162.769 0.812256 161.088 1.03377 159.698 2.21521Z" fill="#585858"/>
<path d="M167.815 13.217H156.92L154.872 29.5356C154.653 31.1601 154.507 32.4892 155.896 33.8183C157.066 34.9259 158.455 34.9997 159.918 34.9997H184.267L185.291 26.6558H168.912C168.254 26.6558 167.376 26.7297 166.864 26.2128C166.645 25.9913 166.426 25.6221 166.499 24.9575L166.938 21.2656H185.949L186.827 13.217H167.961H167.815Z" fill="#585858"/>
<path d="M200.427 23.8499C200.208 23.2592 199.842 22.0039 200.281 18.1643C200.427 16.6875 200.866 14.9154 201.817 13.217H189.971C189.532 14.9892 189.24 16.2445 188.947 18.312C188.143 24.8837 188.801 28.2065 190.556 30.7909C192.896 34.2613 196.406 34.9997 201.67 34.9997H216.514L217.538 26.5082H208.398C204.742 26.5082 201.597 26.5082 200.427 23.8499Z" fill="#585858"/>
<path d="M193.408 4.94669C192.53 5.9066 192.018 6.94036 190.995 9.37706H219.659L220.682 0.885512H205.985C201.159 0.811673 197.064 0.885512 193.408 4.94669Z" fill="#585858"/>
<path d="M229.968 34.9997H241.01L243.715 13.217H232.747L229.968 34.9997Z" fill="#585858"/>
<path d="M223.314 0.812256L222.291 9.30381H254.976L256 0.812256H223.314Z" fill="#585858"/>
<path fill-rule="evenodd" clip-rule="evenodd" d="M26.7627 6.35021C24.0572 2.28903 19.8892 0 14.8438 0C6.65412 0 0 7.01476 0 15.654H5.04543C5.04543 9.89451 9.50589 5.24261 14.9169 5.24261C19.6699 5.24261 23.3991 8.49155 24.3497 13.2173L24.4228 12.7742L24.4959 12.1835L24.6422 11.5928L24.7884 11.0021L24.9347 10.4114L25.0809 9.89451L25.3003 9.37763L25.5197 8.86075L25.739 8.34387L25.9584 7.827L26.2509 7.31012L26.5434 6.79324L26.7627 6.35021Z" fill="#585858"/>
<path fill-rule="evenodd" clip-rule="evenodd" d="M17.6956 23.9242V27.3208C17.6956 31.0866 12.1383 31.0866 12.1383 27.3208V23.8503C12.0652 20.0845 17.6956 20.0845 17.6956 23.9242ZM0 16.6879V29.3883C0 31.825 2.48616 34.5571 5.63041 34.5571H24.0572C27.2015 34.5571 29.6876 31.8988 29.6876 29.3883V16.6879C29.6876 16.3187 29.6876 15.5803 29.6876 15.5803C29.6876 12.4052 28.737 9.4516 27.2015 7.01489C25.6659 9.4516 24.7153 12.4052 24.7153 15.5803C24.7153 15.6541 24.7153 16.3925 24.7153 16.7617C16.4525 16.6879 8.26281 16.6879 0 16.6879Z" fill="#585858"/>
</svg>
