<svg width="258" height="47" viewBox="0 0 258 47" fill="none" xmlns="http://www.w3.org/2000/svg">
<path fill-rule="evenodd" clip-rule="evenodd" d="M85.4083 18.6507C85.4083 24.0578 84.4016 27.6626 82.3109 29.465C80.9172 30.7188 78.9039 31.3457 76.3486 31.3457H62.1009V41.298H51.1055V13.3219C51.1055 11.206 51.5701 9.63875 52.4993 8.62001C53.5059 7.44454 55.0545 6.81763 56.9904 6.81763H75.8066C79.0588 6.81763 81.4592 7.60127 82.9304 9.24693C84.6339 11.1277 85.4083 14.2623 85.4083 18.6507ZM74.4902 18.8858C74.4902 17.6319 74.1805 16.7699 73.561 16.2214C72.9416 15.6728 71.7801 15.4377 70.0765 15.4377H64.0368C62.7978 15.4377 62.1784 16.143 62.1784 17.4752V22.804H70.0765C71.9349 22.804 73.1739 22.4905 73.7159 21.8636C74.1805 21.2367 74.4902 20.2963 74.4902 18.8858ZM115.375 35.7342C115.375 37.6149 114.91 39.0255 114.058 39.9658C113.207 40.8279 111.735 41.298 109.722 41.298H94.5454C92.3772 41.298 90.8286 40.8279 89.8219 39.8875C88.4282 38.6336 87.7313 36.2043 87.7313 32.5996C87.7313 29.3866 88.5056 27.1924 89.9768 26.0169C90.9834 25.2333 92.4547 24.9198 94.5454 24.9198H105.773V24.528C105.773 23.8227 105.618 23.1958 105.309 22.804C104.767 22.0987 103.837 21.7853 102.366 21.7853H89.4348V15.281H106.47C109.18 15.281 111.271 16.0646 112.82 17.5536C114.446 19.1209 115.22 21.6285 115.22 24.8415V35.7342H115.375ZM105.851 32.6779V31.0323H99.1139C98.4944 31.0323 98.0298 31.189 97.7201 31.4241C97.4104 31.6592 97.2555 32.1294 97.2555 32.6779C97.2555 33.2265 97.4104 33.6183 97.7201 33.8534C98.0298 34.0885 98.417 34.2452 98.959 34.2452H103.915C104.534 34.2452 105.076 34.0885 105.309 33.8534C105.696 33.6183 105.851 33.2265 105.851 32.6779ZM145.729 41.2197H136.204V28.0544C136.204 26.0169 135.817 24.528 135.12 23.5876C134.346 22.5689 133.03 22.0204 131.171 22.0204H129.468C128.848 22.0204 128.461 22.1771 128.151 22.4122C127.842 22.6473 127.687 23.1958 127.687 23.9011V41.298H118.162V19.9045C118.162 18.4939 118.55 17.3968 119.246 16.6916C120.253 15.6728 122.111 15.2026 124.899 15.2026H133.804C137.676 15.2026 140.541 15.9863 142.476 17.4752C144.644 19.1992 145.651 21.7853 145.651 25.1549V41.2197H145.729ZM175.385 35.7342C175.385 37.3798 175.076 38.6336 174.534 39.4957C173.759 40.6711 172.288 41.298 170.12 41.298H157.343C153.317 41.298 150.607 39.6524 149.213 36.2827C148.439 34.402 148.052 31.5025 148.052 27.6626C148.052 23.666 148.671 20.7665 149.91 18.9641C151.613 16.5348 154.478 15.281 158.428 15.281H165.784V6.81763H175.308V35.7342H175.385ZM165.861 32.3645V21.8636H161.68C160.363 21.8636 159.357 22.3338 158.66 23.3526C157.963 24.3713 157.653 25.9386 157.653 28.0544C157.653 30.1703 157.886 31.6592 158.35 32.5996C158.97 33.8534 160.131 34.4803 161.757 34.4803H164.003C164.622 34.4803 165.164 34.3236 165.397 34.0885C165.706 33.8534 165.861 33.3048 165.861 32.3645ZM207.365 28.2112C207.365 33.3049 206.204 36.8313 203.958 38.8687C202.022 40.6711 198.151 41.5331 192.498 41.5331C186.845 41.5331 183.051 40.6711 181.038 38.8687C178.792 36.8313 177.631 33.3049 177.631 28.2112C177.631 23.1175 178.792 19.5911 181.038 17.5536C182.974 15.7512 186.845 14.8892 192.498 14.8892C198.151 14.8892 201.945 15.7512 203.958 17.5536C206.281 19.5911 207.365 23.1175 207.365 28.2112ZM197.686 28.2112C197.686 25.9386 197.376 24.3713 196.757 23.5093C195.983 22.4122 194.511 21.8636 192.498 21.8636C190.485 21.8636 189.091 22.4122 188.239 23.5093C187.62 24.3713 187.31 25.9386 187.31 28.2112C187.31 30.4054 187.62 31.8943 188.239 32.7563C189.014 33.9318 190.485 34.5587 192.498 34.5587C195.131 34.5587 196.757 33.5399 197.299 31.4241C197.609 30.6405 197.686 29.5434 197.686 28.2112ZM228.582 22.0204H225.252C223.007 22.0204 221.381 22.6473 220.529 23.8227C219.677 24.9982 219.212 26.7222 219.212 28.8381V41.298H209.688V26.1737C209.688 22.1771 210.695 19.356 212.708 17.7103C214.721 16.0646 217.896 15.2026 222.31 15.2026H228.659V22.0204H228.582ZM257.077 35.7342C257.077 37.6149 256.613 39.0255 255.761 39.9658C254.909 40.8279 253.438 41.298 251.425 41.298H236.248C234.08 41.298 232.531 40.8279 231.524 39.8875C230.13 38.6336 229.434 36.2043 229.434 32.5996C229.434 29.3866 230.208 27.1924 231.679 26.0169C232.686 25.2333 234.157 24.9198 236.248 24.9198H247.475V24.528C247.475 23.8227 247.321 23.1958 247.011 22.804C246.469 22.0987 245.54 21.7853 244.068 21.7853H231.137V15.281H248.172C250.883 15.281 252.973 16.0646 254.522 17.5536C256.148 19.1209 256.922 21.6285 256.922 24.8415V35.7342H257.077ZM247.553 32.6779V31.0323H240.816C240.197 31.0323 239.732 31.189 239.422 31.4241C239.113 31.6592 238.958 32.1294 238.958 32.6779C238.958 33.2265 239.113 33.6183 239.422 33.8534C239.732 34.0885 240.119 34.2452 240.661 34.2452H245.617C246.237 34.2452 246.779 34.0885 247.011 33.8534C247.398 33.6183 247.553 33.2265 247.553 32.6779Z" fill="#585858"/>
<path fill-rule="evenodd" clip-rule="evenodd" d="M8.67249 46C6.27207 46 4.18138 44.9813 2.55529 43.414C1.00663 41.8467 0 39.6525 0 37.2232V22.7257H4.25881H6.73667C15.6415 22.7257 24.5462 22.7257 33.3736 22.7257V20.2181C33.3736 16.5349 31.9024 13.1652 29.4245 10.6576C27.0241 8.22828 23.6945 6.66099 19.9777 6.66099C16.3384 6.66099 13.0087 8.14992 10.5309 10.6576C8.28533 12.9302 6.8141 16.1431 6.65924 19.5911H0.077433C0.232299 14.2624 2.47785 9.40375 5.96234 5.87734C9.60169 2.27257 14.5574 0 20.0551 0C25.5529 0 30.586 2.27257 34.2254 5.95571C37.8647 9.63884 40.1103 14.6542 40.1103 20.2964V37.3799C40.1103 39.8092 39.1036 41.925 37.555 43.5707C36.0063 45.138 33.8382 46.1567 31.4378 46.1567C23.8494 46 16.2609 46 8.67249 46ZM20.0551 27.9762C17.6547 27.9762 15.7189 30.8756 15.7189 34.4021C15.7189 37.9285 17.6547 40.8279 20.0551 40.8279H20.1326C22.4556 40.7496 24.3914 37.9285 24.3914 34.4021C24.3914 30.954 22.533 28.0545 20.21 27.9762C20.1326 27.9762 20.1326 27.9762 20.0551 27.9762Z" fill="#585858"/>
</svg>
