<?xml version="1.0" encoding="utf-8"?><svg xmlns="http://www.w3.org/2000/svg" xmlns:xlink="http://www.w3.org/1999/xlink"><symbol viewBox="0 0 10 6" id="arr-down" xmlns="http://www.w3.org/2000/svg"><path d="M9.84.501L9.513.166a.539.539 0 00-.774 0L5.002 3.962l-3.74-3.8a.538.538 0 00-.774 0L.16.495a.562.562 0 000 .786l4.454 4.54c.103.105.24.179.388.179h.002a.555.555 0 00.386-.178l4.45-4.529A.566.566 0 0010 .896a.56.56 0 00-.16-.395z"/></symbol><symbol fill="none" viewBox="0 0 14 11" id="arr-right" xmlns="http://www.w3.org/2000/svg"><path d="M13.147 4.963L9.472.933a.61.61 0 00-.923 0 .763.763 0 000 1.012l2.56 2.808H1.323c-.363 0-.656.321-.656.72 0 .397.293.719.656.719h9.781L8.544 9a.763.763 0 000 1.012.61.61 0 00.923 0l3.674-4.03a.75.75 0 00.192-.51.744.744 0 00-.186-.509z" fill="#fff"/></symbol><symbol viewBox="0 0 10 6" id="arr-top" xmlns="http://www.w3.org/2000/svg"><path d="M.16 5.499l.327.335a.539.539 0 00.774 0l3.737-3.796 3.74 3.8a.538.538 0 00.774 0l.328-.333a.562.562 0 000-.786L5.386.179A.555.555 0 004.998 0h-.002a.555.555 0 00-.386.178L.16 4.707a.566.566 0 00-.16.397c0 .149.057.29.16.395z"/></symbol><symbol viewBox="0 0 12 20" id="arrow-left" xmlns="http://www.w3.org/2000/svg"><path d="M10.997 19.68l.67-.655a1.08 1.08 0 000-1.547l-7.592-7.474 7.6-7.481c.21-.206.325-.48.325-.774a1.08 1.08 0 00-.324-.774L11.01.32a1.125 1.125 0 00-1.572 0L.356 9.228c-.209.206-.356.48-.356.776v.003c0 .293.148.568.356.774l9.057 8.9c.21.206.497.319.794.319.298 0 .581-.113.79-.32z"/></symbol><symbol viewBox="0 0 12 20" id="arrow-right" xmlns="http://www.w3.org/2000/svg"><path d="M1.003.32l-.67.655a1.08 1.08 0 000 1.547l7.592 7.474-7.6 7.481c-.21.206-.325.48-.325.774 0 .293.115.568.324.774l.666.655a1.125 1.125 0 001.572 0l9.082-8.908c.209-.206.356-.48.356-.776v-.003c0-.293-.148-.568-.356-.774L2.587.32A1.132 1.132 0 001.793 0c-.298 0-.581.113-.79.32z"/></symbol><symbol viewBox="0 0 90 87" id="box" xmlns="http://www.w3.org/2000/svg"><path d="M79.3 18.989L40.542.126a1.228 1.228 0 00-1.084 0L.7 18.989c-.433.218-.7.655-.7 1.142v45.772c0 .487.267.923.7 1.142L39.458 85.89a1.2 1.2 0 00.55.117c.2 0 .367-.033.55-.117L79.3 67.028c.433-.218.7-.655.7-1.142V20.114c0-.487-.267-.924-.7-1.125zM40.008 2.662l35.874 17.452L65.48 25.17a.959.959 0 00-.216-.134L29.64 7.718l10.368-5.056zm16.62 29.63l6.852-3.326v13.186l-6.851 3.325V32.292zM26.807 9.129L62.63 26.548l-7.335 3.56-35.808-17.401 7.319-3.578zm11.952 73.62L2.501 65.114V22.13l32.89 15.957 3.367 1.68V82.75zm1.25-45.183l-3.467-1.68L4.134 20.114l12.42-6.047 35.89 17.47-12.436 6.03zM77.5 65.113L41.242 82.75V39.767l12.87-6.232v13.958c0 .437.216.84.583 1.075.2.135.433.185.666.185.184 0 .367-.034.55-.118l9.353-4.552c.433-.218.7-.655.7-1.142V27.74l11.535-5.61v42.983z"/><path d="M12.819 60.227l-5.685-2.772a1.25 1.25 0 00-1.667.588c-.3.622-.033 1.377.584 1.68l5.684 2.771a1.3 1.3 0 00.55.118c.467 0 .917-.269 1.134-.706a1.29 1.29 0 00-.6-1.68zm5.234-3.444L7.134 51.476a1.25 1.25 0 00-1.667.587c-.3.622-.033 1.378.584 1.68l10.919 5.308a1.3 1.3 0 00.55.118c.466 0 .917-.27 1.133-.706a1.29 1.29 0 00-.6-1.68z"/><circle cx="76.5" cy="68.51" r="12.5" fill="#fff"/><path d="M82.223 69.15v-1.28h-5.082v-5.082h-1.282v5.082h-5.082v1.282h5.082v5.082h1.282V69.15h5.082z"/></symbol><symbol viewBox="0 0 68 74" id="car" xmlns="http://www.w3.org/2000/svg"><path d="M17.807 51.02c0-.639-.518-1.158-1.158-1.158H7.094c-.64 0-1.158.519-1.158 1.159v6.514c0 .64.518 1.159 1.158 1.159h9.555c.64 0 1.158-.519 1.158-1.159v-6.514zm-2.316 5.357H8.252V52.18h7.239v4.198zm37.786-5.357c0-.639-.518-1.158-1.158-1.158h-9.555c-.64 0-1.158.519-1.158 1.159v6.514c0 .64.518 1.159 1.158 1.159h9.555c.64 0 1.158-.519 1.158-1.159v-6.514zm-2.316 5.357h-7.239V52.18h7.239v4.198zm-14.043-4.053c0-.64-.519-1.159-1.158-1.159H23.454a1.16 1.16 0 00-1.159 1.159v3.909c0 .64.519 1.158 1.159 1.158H35.76c.64 0 1.158-.519 1.158-1.158v-3.91zm-2.317 2.75h-9.99v-1.592h9.99v1.592z"/><path d="M66.54 7.848L52.79 1.092a1.153 1.153 0 00-1.017 0L38.01 7.828a1.167 1.167 0 00-.657 1.041v12.495c0 1.909.652 4.031 1.688 5.913H13.726a5.17 5.17 0 00-4.858 3.347L4.37 42.745 2.507 44.48A7.15 7.15 0 000 49.939v17.86c0 2.858 2.302 5.227 5.158 5.227h3.355a5.272 5.272 0 005.24-5.226v-2.736H45.46V67.8c0 2.857 2.31 5.226 5.168 5.226h3.353a5.264 5.264 0 005.233-5.226V49.478a7.249 7.249 0 00-2.252-5.204l-1.318-1.395-2.169-5.836 8.496-5.805c2.976-2.029 5.206-6.274 5.206-9.874V8.887a1.146 1.146 0 00-.636-1.04zm-55.5 23.56a2.827 2.827 0 012.686-1.814h26.953c.588.579 1.23 1.213 1.914 1.678l8.368 5.67 1.958 5.247H7.024l4.015-10.78zm.397 36.392a2.956 2.956 0 01-2.924 2.91H5.158c-1.58 0-2.842-1.33-2.842-2.91v-3.532a5.133 5.133 0 002.843.796h6.278V67.8zm44.595 2.049a2.93 2.93 0 01-2.052.861h-3.353c-1.58 0-2.851-1.33-2.851-2.91v-2.736h6.204a5.375 5.375 0 002.917-.796V67.8a2.926 2.926 0 01-.865 2.048zm.865-10.902v1.006c0 1.58-1.337 2.794-2.917 2.794H5.16a2.79 2.79 0 01-2.843-2.794V49.94a4.857 4.857 0 011.71-3.72c.014-.011.022-.043.035-.055l1.754-1.658h48.203l1.248 1.355c.017.017.06.044.077.06a4.944 4.944 0 011.554 3.557v9.469zm7.962-37.584c0 2.808-1.876 6.379-4.198 7.961l-8.381 5.72-8.396-5.72c-2.32-1.582-4.216-5.153-4.216-7.96V9.59l12.596-6.17 12.595 6.19v11.754z"/><path d="M47.868 18.397a1.157 1.157 0 00-1.943.508c-.11.4.004.828.297 1.122l3.523 3.567c.215.222.51.35.82.354h.002c.308-.004.603-.13.82-.35l6.958-6.964a1.159 1.159 0 00-1.638-1.642l-6.136 6.135-2.703-2.73z"/></symbol><symbol viewBox="0 0 17 17" id="cart" xmlns="http://www.w3.org/2000/svg"><path d="M5.1 13.6c-.935 0-1.7.765-1.7 1.7 0 .935.765 1.7 1.7 1.7.935 0 1.7-.765 1.7-1.7 0-.935-.765-1.7-1.7-1.7zM0 0v1.7h1.7l3.06 6.46-1.19 2.04c-.085.255-.17.595-.17.85 0 .935.765 1.7 1.7 1.7h10.2v-1.7H5.44a.183.183 0 01-.17-.17v-.085l.765-1.445h6.29c.68 0 1.19-.34 1.445-.85l3.06-5.525c.17-.17.17-.255.17-.425 0-.51-.34-.85-.85-.85H3.57L2.805 0H0zm13.6 13.6c-.935 0-1.7.765-1.7 1.7 0 .935.765 1.7 1.7 1.7.935 0 1.7-.765 1.7-1.7 0-.935-.765-1.7-1.7-1.7z"/></symbol><symbol viewBox="0 0 14 16" id="cart-bag" xmlns="http://www.w3.org/2000/svg"><path d="M7.107 8.86c-.62 0-1.216-.402-1.679-1.13-.502-.788-.778-1.845-.778-2.975 0-1.312.186-2.322.553-3.003C5.603 1.01 6.225.65 7.107.65c.882 0 1.505.36 1.904 1.1.367.682.553 1.692.553 3.004 0 1.13-.276 2.187-.778 2.975-.463.728-1.06 1.13-1.679 1.13z" fill="#fff"/><path d="M7.107 1.09c-.727 0-1.196.27-1.521.872-.332.616-.5 1.556-.5 2.793 0 1.032.258 2.03.709 2.737.22.346.683.927 1.312.927S8.2 7.84 8.42 7.492c.45-.707.709-1.705.709-2.737 0-1.237-.169-2.177-.5-2.793-.326-.603-.795-.871-1.522-.871zm0-.88C9.347.21 10 2.246 10 4.756S8.705 9.299 7.107 9.299c-1.598 0-2.893-2.034-2.893-4.544S4.867.21 7.107.21z"/><path d="M13 4.105H1v11.106h12V4.105z" fill="#fff"/><path d="M12.572 4.548H1.428v10.22h11.144V4.548z"/></symbol><symbol viewBox="0 0 12 9" id="check" xmlns="http://www.w3.org/2000/svg"><path d="M12 .946L3.771 9 0 5.309l.967-.947L3.77 7.101 11.033 0 12 .946z"/></symbol><symbol viewBox="0 0 9 9" id="close" xmlns="http://www.w3.org/2000/svg"><path d="M9 .906L8.094 0 4.5 3.594.906 0 0 .906 3.594 4.5 0 8.094.906 9 4.5 5.406 8.094 9 9 8.094 5.406 4.5 9 .906z"/></symbol><symbol viewBox="0 0 20 17" id="comparison" xmlns="http://www.w3.org/2000/svg"><path d="M19.736 12.716c-.027-.285-.2-.504-.351-.735a4137.37 4137.37 0 00-3.14-4.781c-.086-.13-.193-.246-.274-.378-.142-.231-.707-.235-.856-.006-.365.556-.757 1.096-1.122 1.65-.86 1.308-1.712 2.62-2.564 3.931a.443.443 0 00-.064.21c-.056.95.171 1.833.736 2.612.848 1.17 2.018 1.777 3.493 1.77 2.005-.005 3.713-1.424 4.064-3.346.03-.157.05-.316.078-.473v-.454zm-6.915-.094c.91-1.399 1.807-2.773 2.715-4.167a183.551 183.551 0 012.705 4.167h-5.42zM10.217 0c-.152.016-.303.024-.453.05-.53.09-.99.334-1.387.7a2.836 2.836 0 00-.67.894c-.033.072-.075.098-.155.098-1.163-.002-2.327.002-3.49-.006a.972.972 0 00-.537.154c-.61.368-.734 1.169-.281 1.726.227.28.514.388.851.394.486.01.969.02 1.454.024.67.004 1.337.002 2.007-.002.081 0 .126.026.165.1.211.411.487.765.852 1.044.557.426 1.176.586 1.867.544 1.038-.064 1.75-.62 2.257-1.509.076-.133.15-.18.295-.18 1.063-.001 2.125-.011 3.189-.023.141-.002.283-.012.425-.02.242-.016.423-.154.58-.326a1.153 1.153 0 00-.295-1.802.968.968 0 00-.487-.124c-1.16.006-2.32.002-3.48.006-.083 0-.128-.024-.17-.102C12.271.725 11.547.16 10.532.016c-.015-.002-.031-.01-.045-.016h-.271zm-.909 2.867c.002-.51.425-.945.915-.945.514 0 .948.433.945.945-.004.503-.453.959-.945.959-.49 0-.917-.45-.915-.96zM4.928 17c2.036-.004 3.74-1.386 4.103-3.347.056-.306.056-.626.077-.938a.52.52 0 00-.099-.32c-.825-1.274-1.644-2.55-2.472-3.822-.379-.58-.792-1.142-1.163-1.726-.165-.261-.737-.25-.906.011-.648.999-1.331 1.976-1.984 2.975-.56.857-1.096 1.726-1.643 2.59a.676.676 0 00-.105.375c.01 1.443.574 2.614 1.787 3.463.69.484 1.545.74 2.405.74zm2.696-4.414l-.018.029c-1.79.037-3.579.04-5.4-.002l2.716-4.16 2.702 4.133z"/></symbol><symbol viewBox="0 0 11 20" id="facebook" xmlns="http://www.w3.org/2000/svg"><path d="M10.586.004L7.947 0c-2.964 0-4.88 1.932-4.88 4.922v2.27H.416A.411.411 0 000 7.598v3.288c0 .226.186.408.415.408h2.653v8.297a.41.41 0 00.415.408h3.46c.23 0 .416-.183.416-.408v-8.297h3.101a.41.41 0 00.415-.408l.001-3.288a.405.405 0 00-.121-.288.419.419 0 00-.294-.12H7.36V5.268c0-.925.224-1.394 1.449-1.394l1.777-.001c.23 0 .415-.183.415-.408V.412a.411.411 0 00-.414-.408z"/></symbol><symbol viewBox="0 0 19 15" id="filter" xmlns="http://www.w3.org/2000/svg"><path d="M19 2.461v-1.23H6.042V0H2.417v1.23H0v1.231h2.417v1.23h3.625v-1.23H19zm0 11.309v-1.231h-8.941v-1.23H6.434v1.23H0v1.23h6.434V15h3.625v-1.23H19zm0-5.675v-1.23h-2.16V5.633h-3.626v1.23H0v1.23h13.214v1.231h3.625v-1.23H19z"/></symbol><symbol viewBox="0 0 16 16" id="grid" xmlns="http://www.w3.org/2000/svg"><path d="M0 7.111h7.111V0H0v7.111zM0 16h7.111V8.889H0V16zm8.889 0H16V8.889H8.889V16zm0-16v7.111H16V0"/></symbol><symbol viewBox="0 0 20 20" id="instagram" xmlns="http://www.w3.org/2000/svg"><path d="M9.997 6.665A3.342 3.342 0 006.663 10a3.342 3.342 0 003.334 3.335A3.342 3.342 0 0013.332 10a3.342 3.342 0 00-3.335-3.335zM20 10c0-1.38.012-2.75-.065-4.128-.078-1.6-.443-3.022-1.614-4.193C17.147.506 15.73.143 14.127.066 12.747-.012 11.378 0 10 0 8.619 0 7.25-.012 5.872.066 4.271.143 2.85.509 1.68 1.679.506 2.853.143 4.271.066 5.872-.012 7.253 0 8.622 0 10c0 1.378-.013 2.75.065 4.128.077 1.6.443 3.022 1.613 4.193 1.174 1.173 2.592 1.536 4.193 1.613C7.253 20.012 8.622 20 10 20c1.38 0 2.75.013 4.127-.065 1.602-.077 3.022-.443 4.193-1.613 1.174-1.174 1.536-2.592 1.614-4.193.08-1.379.065-2.747.065-4.128zM9.997 15.131A5.124 5.124 0 014.867 10a5.124 5.124 0 015.13-5.131A5.124 5.124 0 0115.128 10a5.124 5.124 0 01-5.13 5.131zm5.341-9.274A1.197 1.197 0 0114.14 4.66c0-.663.535-1.198 1.198-1.198a1.197 1.197 0 01.848 2.046 1.196 1.196 0 01-.848.35z"/></symbol><symbol viewBox="0 0 14 15" id="load" xmlns="http://www.w3.org/2000/svg"><path d="M14 5.77L12.31 0l-1.792 1.638C7.24-.251 2.855.11 0 2.721l1.333 1.22C3.447 2.007 6.64 1.66 9.14 2.898L7.69 4.223 14 5.77zM0 8.077L1.69 15l1.792-1.966C6.76 15.301 11.145 14.868 14 11.735l-1.333-1.464c-2.114 2.32-5.306 2.738-7.807 1.252l1.45-1.591L0 8.077z"/></symbol><symbol viewBox="0 0 18 18" id="magnifying-glass" xmlns="http://www.w3.org/2000/svg"><path d="M6.5 0A6.5 6.5 0 0113 6.5c0 1.61-.59 3.09-1.56 4.23l.27.27h.79l5 5-1.5 1.5-5-5v-.79l-.27-.27A6.516 6.516 0 016.5 13a6.5 6.5 0 110-13zm0 2C4 2 2 4 2 6.5S4 11 6.5 11 11 9 11 6.5 9 2 6.5 2z"/></symbol><symbol viewBox="0 0 25 25" id="magnifying-glass-2" xmlns="http://www.w3.org/2000/svg"><g clip-path="url(#asclip0_372:454009)"><path d="M2.817 2.812a9.57 9.57 0 0113.881 13.169l.73.73a1.512 1.512 0 012.14 0l4.989 4.99c.59.59.59 1.548 0 2.138l-.713.713c-.59.59-1.547.59-2.138 0l-4.99-4.99a1.512 1.512 0 010-2.138l-.73-.73A9.57 9.57 0 012.817 2.811zM17.43 18.85l4.99 4.99a.504.504 0 00.712 0l.713-.713a.504.504 0 000-.712l-4.99-4.99a.516.516 0 00-.712 0l-.713.713a.504.504 0 000 .712zm-13.9-3.207a8.568 8.568 0 100-12.117 8.578 8.578 0 000 12.117z"/><path d="M4.244 4.24l.713.713a6.56 6.56 0 000 9.266l-.713.713a7.568 7.568 0 010-10.692z"/></g><defs><clipPath id="asclip0_372:454009"><path transform="matrix(-1 0 0 1 25 0)" d="M0 0h25v25H0z"/></clipPath></defs></symbol><symbol viewBox="0 0 15 15" id="mail" xmlns="http://www.w3.org/2000/svg"><g clip-path="url(#atclip0)"><path d="M14.868 2.98l-4.55 4.52 4.55 4.52c.082-.172.132-.362.132-.565v-7.91c0-.203-.05-.393-.132-.565zm-1.186-.753H1.318c-.202 0-.392.05-.564.132l5.814 5.785a1.32 1.32 0 001.864 0l5.815-5.785a1.303 1.303 0 00-.565-.132zM.132 2.98A1.303 1.303 0 000 3.545v7.91c0 .203.05.393.132.565l4.55-4.52-4.55-4.52z"/><path d="M9.697 8.121l-.643.644a2.2 2.2 0 01-3.107 0l-.644-.644-4.55 4.52c.173.082.363.132.565.132h12.364c.203 0 .393-.05.565-.132l-4.55-4.52z"/></g><defs><clipPath id="atclip0"><path d="M0 0h15v15H0z"/></clipPath></defs></symbol><symbol viewBox="0 0 12 15" id="marker" xmlns="http://www.w3.org/2000/svg"><path d="M5.567 0c-3.032 0-5.5 2.437-5.5 5.432 0 3.718 4.922 9.175 5.132 9.406a.5.5 0 00.737 0c.21-.23 5.132-5.688 5.132-9.406C11.068 2.437 8.6 0 5.568 0zm0 8.166C4.043 8.166 2.8 6.939 2.8 5.432S4.042 2.7 5.568 2.7c1.525 0 2.767 1.226 2.767 2.733 0 1.508-1.242 2.734-2.768 2.734z"/></symbol><symbol viewBox="0 0 4 16" id="more" xmlns="http://www.w3.org/2000/svg"><path d="M4 2a2 2 0 11-4 0 2 2 0 014 0zm0 6a2 2 0 11-4 0 2 2 0 014 0zm0 6a2 2 0 11-4 0 2 2 0 014 0z"/></symbol><symbol viewBox="0 0 15 15" id="phone" xmlns="http://www.w3.org/2000/svg"><path d="M14.592 11.008l-2.093-2.093c-.748-.747-2.019-.448-2.318.524-.224.672-.972 1.046-1.645.897-1.495-.374-3.513-2.318-3.887-3.888-.225-.673.224-1.42.897-1.645.972-.299 1.27-1.57.523-2.317L3.976.392C3.378-.13 2.48-.13 1.957.392l-1.42 1.42C-.883 3.309.687 7.27 4.2 10.785c3.514 3.514 7.476 5.159 8.971 3.663l1.42-1.42c.524-.598.524-1.495 0-2.018z"/></symbol><symbol viewBox="0 0 15 15" id="plus" xmlns="http://www.w3.org/2000/svg"><path d="M8.436 6.564V0H6.564v6.564H0v1.872h6.564V15h1.872V8.436H15V6.564H8.436z"/></symbol><symbol viewBox="0 0 70 72" id="sertificate" xmlns="http://www.w3.org/2000/svg"><path d="M35.385 25.523H8.846c-.566 0-1.036.479-1.036 1.055 0 .577.47 1.055 1.036 1.055h26.538c.567 0 1.037-.478 1.037-1.055 0-.576-.47-1.055-1.036-1.055zm0 7.411H8.846c-.566 0-1.036.479-1.036 1.055 0 .577.47 1.055 1.036 1.055h26.538c.567 0 1.037-.478 1.037-1.055 0-.576-.47-1.055-1.036-1.055zm0 7.411H8.846c-.566 0-1.036.479-1.036 1.055 0 .577.47 1.055 1.036 1.055h26.538c.567 0 1.037-.478 1.037-1.055 0-.576-.47-1.055-1.036-1.055zm0 7.411H8.846c-.566 0-1.036.478-1.036 1.055s.47 1.055 1.036 1.055h26.538c.567 0 1.037-.478 1.037-1.055s-.47-1.055-1.036-1.055zM22.143 58.612H8.846c-.566 0-1.036.479-1.036 1.055 0 .577.47 1.055 1.036 1.055h13.297c.567 0 1.037-.478 1.037-1.055 0-.576-.456-1.055-1.037-1.055zm1.575-43.185h21.273c1.285 0 2.322-1.055 2.322-2.363V9.633c0-1.308-1.037-2.363-2.322-2.363H23.705c-1.286 0-2.322 1.055-2.322 2.363v3.417c.013 1.308 1.064 2.377 2.335 2.377zm-.248-5.794c0-.14.11-.253.248-.253h21.286a.25.25 0 01.25.253v3.417a.25.25 0 01-.25.253H23.732a.25.25 0 01-.248-.253V9.633h-.014z"/><path d="M69.276 40.064a2.127 2.127 0 010-2.377 4.24 4.24 0 00.511-3.684 4.181 4.181 0 00-2.543-2.672 2.11 2.11 0 01-1.368-1.926 4.26 4.26 0 00-1.7-3.29 4.066 4.066 0 00-3.594-.634c-.83.24-1.7-.042-2.225-.731a4.024 4.024 0 00-2.24-1.505V5.217C56.117 2.334 53.81 0 50.99 0H15.812a5.05 5.05 0 00-3.621 1.533L1.507 12.403A5.227 5.227 0 000 16.087v50.696C0 69.666 2.294 72 5.128 72h45.861c2.834 0 5.128-2.334 5.128-5.217v-4.669l2.834 1.772a2.177 2.177 0 002.225.042 2.254 2.254 0 001.134-1.955V52.37a4.204 4.204 0 002.087-.928 4.232 4.232 0 001.493-3.122 2.11 2.11 0 011.368-1.927 4.181 4.181 0 002.543-2.672 4.236 4.236 0 00-.525-3.656zM13.09 3.6v8.184c0 .844-.678 1.533-1.507 1.533H3.538L13.09 3.6zm37.9 66.29H5.127c-1.686 0-3.055-1.392-3.055-3.107V16.087c0-.224.028-.45.07-.675h9.44c1.976 0 3.58-1.63 3.58-3.642V2.18a3.32 3.32 0 01.663-.07H50.99c1.687 0 3.055 1.392 3.055 3.107v18.056a4.024 4.024 0 00-2.24 1.505c-.524.69-1.395.985-2.21.731a4.05 4.05 0 00-3.594.633 4.158 4.158 0 00-1.7 3.29 2.11 2.11 0 01-1.369 1.927 4.181 4.181 0 00-2.543 2.672 4.255 4.255 0 00.511 3.67c.484.718.484 1.66 0 2.377a4.24 4.24 0 00-.511 3.684 4.181 4.181 0 002.543 2.672 2.11 2.11 0 011.369 1.927 4.282 4.282 0 001.492 3.122c.608.506 1.327.83 2.087.928v9.605c0 .815.429 1.56 1.134 1.954.691.394 1.548.38 2.225-.042l2.834-1.772v4.669c-.028 1.673-1.396 3.066-3.083 3.066zm9.233-7.917c0 .099-.111.17-.194.113l-3.801-2.377a2.17 2.17 0 00-2.308 0l-3.801 2.377c-.083.056-.194-.014-.194-.113v-9.801a2.022 2.022 0 011.866.801 4.087 4.087 0 003.276 1.632c1.285 0 2.488-.59 3.276-1.632a2.048 2.048 0 011.866-.801v9.801h.014zm7.339-20.728c.36.549.456 1.21.263 1.843a2.09 2.09 0 01-1.272 1.335 4.161 4.161 0 00-2.737 3.84 2.057 2.057 0 01-.746 1.56 2.071 2.071 0 01-1.907.408c-1.645-.492-3.387.085-4.437 1.463-.401.52-.996.815-1.645.815-.65 0-1.244-.295-1.645-.815-.802-1.055-2.004-1.646-3.262-1.646-.387 0-.788.057-1.175.17a2.055 2.055 0 01-1.907-.409 2.105 2.105 0 01-.747-1.56c-.055-1.744-1.133-3.249-2.736-3.84a2.091 2.091 0 01-1.272-1.336 2.128 2.128 0 01.262-1.842 4.255 4.255 0 000-4.753 2.168 2.168 0 01-.262-1.842 2.09 2.09 0 011.271-1.336 4.16 4.16 0 002.737-3.84c.014-.66.332-1.25.857-1.644A2.054 2.054 0 0149 27.492c1.645.492 3.386-.084 4.437-1.462.4-.52.995-.816 1.645-.816s1.244.295 1.645.816c1.05 1.378 2.792 1.954 4.437 1.462a2.01 2.01 0 011.796.324c.526.38.83.984.857 1.645.056 1.744 1.134 3.248 2.737 3.839a2.091 2.091 0 011.272 1.336 2.13 2.13 0 01-.263 1.842c-.968 1.463-.968 3.333 0 4.767z"/><path d="M55.08 30.038c-4.795 0-8.693 3.965-8.693 8.845 0 4.88 3.898 8.845 8.694 8.845 4.796 0 8.694-3.965 8.694-8.845-.014-4.88-3.912-8.846-8.694-8.846zm0 15.567c-3.648 0-6.62-3.024-6.62-6.736 0-3.713 2.972-6.736 6.62-6.736 3.65 0 6.622 3.023 6.622 6.736 0 3.712-2.972 6.736-6.621 6.736z"/></symbol><symbol viewBox="0 0 83 83" id="star-10" xmlns="http://www.w3.org/2000/svg"><path d="M66.543 34.908l-.417.743.667.53 8.683 6.887-7.412 7.033-.507.481.278.642 3.864 8.915-10.99.197-.914.016-.065.912-.787 11.054-9.374-4.505-.792-.38-.48.736-5.92 9.107-6.94-8.95-.491-.635-.726.343-10.022 4.73-.59-11.035-.045-.85-.846-.09-11.092-1.193 4.312-9.241.347-.743-.66-.486-8.828-6.493 8.308-5.039.728-.442-.32-.79-4.376-10.773 11.304-.597.898-.047.048-.899.588-11.205 9.995 5.111.782.4.497-.724 6.142-8.942 6.738 8.548.496.63.722-.348 9.378-4.507.783 10.611.063.85.849.073 11.384.984-5.26 9.381z"/><path d="M28.242 38.7c.988-.381 1.95-.867 2.886-1.456a12.128 12.128 0 002.574-2.262h1.716V53H33V38.336c-.208.19-.468.39-.78.598a8.763 8.763 0 01-.988.598c-.346.19-.72.373-1.118.546-.381.173-.754.32-1.118.442l-.754-1.82zM41.8 43.978c0-3.016.529-5.339 1.586-6.968 1.075-1.63 2.557-2.444 4.446-2.444 1.89 0 3.363.815 4.42 2.444 1.075 1.63 1.612 3.952 1.612 6.968s-.537 5.339-1.612 6.968c-1.057 1.63-2.53 2.444-4.42 2.444-1.89 0-3.371-.815-4.446-2.444-1.057-1.63-1.586-3.952-1.586-6.968zm9.516 0c0-.988-.06-1.924-.182-2.808-.104-.884-.295-1.655-.572-2.314-.26-.659-.615-1.179-1.066-1.56-.45-.399-1.005-.598-1.664-.598s-1.213.2-1.664.598c-.45.381-.815.901-1.092 1.56-.26.659-.45 1.43-.572 2.314-.104.884-.156 1.82-.156 2.808 0 .988.052 1.924.156 2.808.121.884.312 1.655.572 2.314.277.659.641 1.187 1.092 1.586.45.381 1.005.572 1.664.572s1.213-.19 1.664-.572c.45-.399.806-.927 1.066-1.586.277-.659.468-1.43.572-2.314.121-.884.182-1.82.182-2.808z"/></symbol><symbol viewBox="0 0 16 14" id="telegram" xmlns="http://www.w3.org/2000/svg"><path d="M6.278 9.227l-.264 3.909c.378 0 .542-.171.739-.376l1.775-1.782 3.68 2.829c.674.395 1.15.187 1.331-.652l2.415-11.88c.215-1.048-.36-1.457-1.018-1.2L.744 5.78c-.97.395-.955.962-.166 1.22l3.629 1.185 8.429-5.538c.396-.276.757-.123.46.153L6.278 9.227z"/></symbol><symbol viewBox="0 0 71 72" id="thumb-up" xmlns="http://www.w3.org/2000/svg"><path d="M69.773 16.72a4.025 4.025 0 001.027-4.15 4.01 4.01 0 00-3.262-2.75l-6.174-.904a1.883 1.883 0 01-1.448-1.058l-2.756-5.6A4 4 0 0053.546 0c-1.547 0-2.939.86-3.614 2.257l-2.756 5.616c-.281.564-.816.96-1.449 1.058l-6.173.903a4.032 4.032 0 00-3.262 2.752 4.025 4.025 0 001.026 4.148l4.472 4.374c.45.437.661 1.086.549 1.707l-1.055 6.166a4.034 4.034 0 001.603 3.964 3.949 3.949 0 002.362.776 4.09 4.09 0 001.885-.465l5.526-2.907a1.905 1.905 0 011.786 0l5.526 2.907a3.992 3.992 0 004.247-.31c1.252-.918 1.87-2.71 1.603-4.248l-.197-1.185a1.185 1.185 0 00-.07-.24l-.324-1.425-.38-2.412a2.41 2.41 0 00-.041-.424l-.043-.211a1.923 1.923 0 01.549-1.707l4.457-4.374zm-5.934 2.864a4.07 4.07 0 00-1.167 3.513v.028c0 .014 0 .028.014.057l.028.211c0 .029.014.07.029.1l.801 4.401.056.297.155.874c.127.734-.155 1.722-.76 2.173a1.882 1.882 0 01-2.024.141l-5.527-2.906a4.017 4.017 0 00-3.754 0l-5.526 2.906a1.883 1.883 0 01-2.026-.14c-.604-.438-.885-1.144-.759-1.892l1.055-6.165a4.078 4.078 0 00-1.153-3.584l-4.472-4.374a1.915 1.915 0 01-.492-1.975c.225-.72.816-1.2 1.547-1.313l6.173-.902a4.055 4.055 0 003.037-2.216l2.756-5.615a1.88 1.88 0 011.73-1.072c.745 0 1.392.395 1.73 1.072l2.756 5.615a4.055 4.055 0 003.037 2.216l6.173.902c.746.113 1.322.593 1.547 1.313.225.72.056 1.453-.492 1.975l-4.472 4.36z"/><path d="M58.02 45.728a4.978 4.978 0 001.195-3.245c0-2.737-2.222-4.966-4.95-4.966l-16.059-.014s-.183-.523-.295-.762a3.066 3.066 0 01-.267-1.651c.239-1.806.295-3.683.337-5.192.127-3.866-.647-6.702-2.348-8.635a9.026 9.026 0 00-6.764-3.076h-.056c-1.448.014-2.644 1.213-2.644 2.695v4.698c0 2.991-.478 7.154-2.784 10.004-2.447 3.02-4.542 2.99-8.043 2.949h-.366v-1.27c0-2.103-1.716-3.824-3.81-3.824H3.81C1.716 33.425 0 35.132 0 37.25v30.927C0 70.28 1.716 72 3.81 72h7.37c2.095 0 3.81-1.721 3.81-3.824v-1.594h1.42c.69 0 1.378.24 1.927.677.14.113.31.254.506.424 1.322 1.128 3.783 3.23 7.298 3.23h25.916c2.728 0 4.95-2.229 4.95-4.966a4.998 4.998 0 00-1.11-3.132 4.977 4.977 0 003.332-4.699 4.98 4.98 0 00-1.195-3.245 4.97 4.97 0 003.037-4.585 5.04 5.04 0 00-3.051-4.558zM12.867 68.176c0 .946-.76 1.707-1.702 1.707H3.811a1.701 1.701 0 01-1.702-1.707V37.25c0-.946.76-1.708 1.702-1.708h7.368c.942 0 1.702.762 1.702 1.708v30.927h-.014zM45.25 39.633h9.014c1.56 0 2.84 1.284 2.84 2.85s-1.28 2.85-2.84 2.85H45.25a2.856 2.856 0 01-2.84-2.85c0-1.566 1.28-2.85 2.84-2.85zm-6.27 29.164H26.127c-2.742 0-4.654-1.637-5.92-2.723-.197-.17-.38-.325-.563-.466a5.229 5.229 0 00-3.234-1.142h-1.42V40.635h.338c3.698.042 6.623.084 9.702-3.725 1.49-1.834 3.263-5.291 3.263-11.344v-4.698c0-.31.239-.565.534-.579h.042a6.95 6.95 0 015.175 2.356c1.336 1.524 1.926 3.866 1.828 7.182-.042 1.467-.099 3.288-.324 4.98a5.03 5.03 0 00.45 2.823v.014c0 .014 0 .014.015.028.337.79.59 1.665.632 2.526.057 1.086-.168 2.172-.647 3.245-.014.028-1.012 2.229-3.754 3.456-.534.24-.773.861-.534 1.397.815 1.849 3.853-.931 4.598-1.707.633-.663 1.251-1.44 1.617-2.286.619-1.368.9-2.793.83-4.204a62.94 62.94 0 01-.043-.494h2.503a4.926 4.926 0 00-.914 2.864 4.985 4.985 0 003.038 4.586 4.98 4.98 0 00-1.195 3.245c0 1.241.45 2.37 1.195 3.245A4.97 4.97 0 0040.3 58.13a5 5 0 001.111 3.133 4.977 4.977 0 00-3.332 4.698c0 1.044.337 2.032.9 2.836zm13.063 0H43.03a2.855 2.855 0 01-2.84-2.85c0-1.566 1.28-2.85 2.84-2.85h9.014c1.561 0 2.84 1.284 2.84 2.85s-1.279 2.85-2.84 2.85zm2.222-7.816h-9.014a2.855 2.855 0 01-2.84-2.85c0-1.567 1.28-2.85 2.84-2.85h9.014c1.56 0 2.84 1.283 2.84 2.85 0 1.566-1.28 2.85-2.84 2.85zm1.828-7.817h-9.014a2.856 2.856 0 01-2.84-2.85c0-1.566 1.28-2.85 2.84-2.85h9.014c1.56 0 2.84 1.284 2.84 2.85a2.846 2.846 0 01-2.84 2.85z"/></symbol><symbol viewBox="0 0 15 15" id="trash" xmlns="http://www.w3.org/2000/svg"><path d="M12.422 1.875H9.844v-.469C9.844.63 9.214 0 8.438 0H6.562c-.776 0-1.406.63-1.406 1.406v.469H2.578c-.647 0-1.172.525-1.172 1.172v.937c0 .26.21.47.469.47h11.25a.47.47 0 00.469-.47v-.937c0-.647-.525-1.172-1.172-1.172zm-6.328-.469a.47.47 0 01.468-.468h1.875a.47.47 0 01.47.468v.469H6.093v-.469zM2.295 5.39c-.084 0-.15.07-.146.154l.386 8.117A1.406 1.406 0 003.94 15h7.118c.752 0 1.37-.588 1.405-1.34l.387-8.116a.146.146 0 00-.147-.153H2.295zm7.08 1.173a.469.469 0 11.937 0v6.093a.469.469 0 11-.938 0V6.562zm-2.345 0a.469.469 0 11.938 0v6.093a.469.469 0 11-.938 0V6.562zm-2.343 0a.469.469 0 11.937 0v6.093a.469.469 0 11-.937 0V6.562z"/></symbol><symbol viewBox="0 0 17 14" id="view-list" xmlns="http://www.w3.org/2000/svg"><path d="M5 0v4h12V0H5zm0 14h12v-4H5v4zm0-5h12V5H5v4zM0 4h4V0H0v4zm0 10h4v-4H0v4zm0-5h4V5H0v4z"/></symbol><symbol viewBox="0 0 72 72" id="wall-clock" xmlns="http://www.w3.org/2000/svg"><g clip-path="url(#beclip0)"><path d="M50.925 44.395l-13.8-9.005V13.5a1.125 1.125 0 10-2.25 0v23.11l14.82 9.675a1.126 1.126 0 001.23-1.886v-.004z"/><path d="M36 0a36 36 0 100 72 36 36 0 000-72zm24.63 59.039L58.492 56.9a1.125 1.125 0 10-1.586 1.599l2.137 2.138a33.616 33.616 0 01-21.918 9.084v-3.347a1.125 1.125 0 10-2.25 0v3.347a33.617 33.617 0 01-21.914-9.091l2.138-2.138a1.126 1.126 0 10-1.599-1.587l-2.137 2.137a33.616 33.616 0 01-9.085-21.918h3.347a1.125 1.125 0 100-2.25H2.278a33.616 33.616 0 019.091-21.914l2.138 2.138a1.124 1.124 0 001.593-.006 1.128 1.128 0 00-.006-1.593l-2.137-2.137a33.616 33.616 0 0121.918-9.085v3.347a1.125 1.125 0 102.25 0V2.278a33.616 33.616 0 0121.914 9.091L56.9 13.507a1.126 1.126 0 001.599 1.587l2.138-2.137a33.616 33.616 0 019.084 21.918h-3.347a1.125 1.125 0 100 2.25h3.347a33.616 33.616 0 01-9.092 21.914z"/></g><defs><clipPath id="beclip0"><path d="M0 0h72v72H0z"/></clipPath></defs></symbol><symbol viewBox="0 0 27 18" id="youtube" xmlns="http://www.w3.org/2000/svg"><path d="M26.41 2.57l.03.208c-.326-1.091-1.207-1.93-2.325-2.237l-.021-.005C21.984 0 13.514 0 13.514 0S5.064-.01 2.939.536C1.8.848.914 1.686.592 2.759l-.005.02C-.2 6.642-.204 11.286.624 15.424l-.037-.208c.327 1.091 1.208 1.93 2.326 2.237l.02.005C5.039 18 13.51 18 13.51 18s8.449 0 10.574-.54c1.145-.313 2.026-1.152 2.347-2.219l.006-.02c.358-1.795.564-3.864.564-5.978v-.476c.005-2.124-.2-4.193-.59-6.197zM10.812 12.86V5.14l7.052 3.865-7.052 3.855z"/></symbol></svg>